<?xml version="1.0" encoding="utf-8"?>
<!-- Generator: Adobe Illustrator 21.0.2, SVG Export Plug-In . SVG Version: 6.00 Build 0)  -->
<svg version="1.1" id="Capa_1" xmlns="http://www.w3.org/2000/svg" xmlns:xlink="http://www.w3.org/1999/xlink" x="0px" y="0px"
	 viewBox="0 0 406.6 402" style="enable-background:new 0 0 406.6 402;" xml:space="preserve">
<style type="text/css">
	.st0{fill:#E22E20;}
	.st1{fill:#FFFFFF;}
	.st2{fill:#FFFEFE;}
	.st3{fill:#91FFFF;}
	.st4{fill:#7487AA;}
	.st5{fill:#CEFF93;}
	.st6{fill:#485773;}
	.st7{fill:#5A6B8A;}
	.st8{fill:#879DC5;}
	.st9{fill:#98AED8;}
	.st10{fill:#88AE59;}
	.st11{fill:#A1CD6B;}
	.st12{fill:#DFDFDF;}
	.st13{fill:#92C6D1;}
	.st14{fill:#FFCE65;}
	.st15{fill:#FFB821;}
	.st16{fill:#B5F1FE;}
	.st17{fill:#FEC9C9;}
	.st18{fill:#869CC4;}
	.st19{fill:#91A7D1;}
	.st20{fill:#869DC5;}
	.st21{fill:#FEFEFE;}
	.st22{fill:#869DC4;}
	.st23{fill:#90FEFE;}
	.st24{fill:#CEFE93;}
	.st25{fill:#7589AC;}
	.st26{fill:#5A6A89;}
	.st27{fill:#5B6A89;}
	.st28{fill:#475672;}
	.st29{fill:#849BC3;}
	.st30{fill:#87AC58;}
	.st31{fill:#A0CD6B;}
	.st32{fill:#DDDCDC;}
	.st33{fill:#B4EFFC;}
	.st34{fill:#7E94B9;}
	.st35{fill:#ACE6F3;}
	.st36{fill:#879CC4;}
	.st37{fill:#E4E7E7;}
	.st38{fill:#E5E5E5;}
	.st39{fill:#475772;}
	.st40{fill:#E23124;}
	.st41{fill:#E22F21;}
	.st42{fill:#E33224;}
	.st43{fill:#E54438;}
	.st44{fill:#E54437;}
	.st45{fill:#0A0A0C;}
	.st46{fill:#17191E;}
	.st47{fill:#0B0A0D;}
	.st48{fill:#0F1317;}
	.st49{fill:#191A20;}
	.st50{fill:#FFC9C9;}
</style>
<path d="M191.6,389.2c-39.2-0.8-84.1-18.4-120.5-54.9c-36.8-36.7-55.4-81.7-55.3-133.8c0.1-52.5,19.1-97.8,56.5-134.4
	c37.5-36.7,83.2-54.6,135.7-53.6C309.7,14.4,393,96.8,392.5,201.9C392,305.9,307.9,389.2,191.6,389.2z"/>
<path class="st0" d="M22.9,201c-0.2-98.8,79.4-181.2,181-181.3c100.4-0.1,181.3,80.6,181.3,181.1c0,101.8-82.5,181.4-181.4,181.2
	C103.9,381.9,23,300.9,22.9,201z"/>
<path d="M73.5,192.5c-2.5,0.6-5,0.5-7.3-1c-0.8-0.5-1.3,0.2-1.9,0.6c-2,1.3-4,2.3-6.5,2.1c-1.9-0.1-3.7-0.5-5.1-1.7
	c-0.9-0.7-1.6-1-2.8-0.7c-4.2,1.1-7.6-1.5-9.2-4.8c-1.1-2.3-0.4-5,1.8-6.9c1.4-1.2,2.4-2.5,3.1-4.3c1.2-3.4,5.2-5.2,8.6-4.2
	c1.1,0.3,1.4-0.2,1.9-0.8c1.9-2.6,4.6-3.7,7.7-3.5c1.7,0.1,3.4,0.6,4.3,2.2c0.6,0.9,1.2,1,2.2,1c2.3,0,4.5,0.3,6.2,2.6
	c0.8-3.3,1.6-6.3,2.4-9.4c-1.2-0.2-2.3-0.4-3.4-0.7c-2.5-0.6-4.4-1.9-5.5-4.3c-0.4-0.9-0.9-1.4-2-1.7c-4.4-1-8.2-7.1-7.5-11.6
	c0.2-1.5,0.9-2.7,1.9-3.8c2.5-2.8,5.2-5.3,9.3-5c0.7,0,0.8-0.4,0.8-0.9c0.1-4.5,3.1-6.6,6.9-7.8c0.7-0.2,1.2-0.4,1.6-1.2
	c1.6-3.8,6.2-6.1,10.3-4.9c1.4,0.4,2,0.2,2.9-0.9c1.9-2.2,4.5-3.3,7.4-3.5c1.5-0.1,2.5-0.7,3.4-1.8c8.8-10.4,19.2-19,30.7-26.2
	c12.1-7.5,25.1-12.6,38.9-15.9c12.4-2.9,24.9-4.1,37.6-3.2c18.6,1.3,36.4,6.1,52.9,14.9c2.4,1.3,4.9,2.1,7.7,2.3
	c6.8,0.5,13.2,2.6,19.1,5.9c3.4,1.9,6.2,4.7,8.2,8.2c0.8,1.3,1.6,2.6,2.3,3.9c2.4,4.1,3.6,8.7,4.5,13.3c0.2,1.1,0.6,2,1.2,2.8
	c9.5,12.4,16.5,26,20.9,41c0.3,1.2,0.7,1.8,2.1,1.6c2.5-0.4,4.5,0.6,6.4,2.2c1,0.9,2,1.2,3.5,0.9c4.8-0.8,8.4,2.4,8.2,7.2
	c0,0.8,0.1,1.2,0.8,1.5c3,1.4,4.3,3.7,3.9,7c-0.5,3.4-2.1,6-5.3,7.4c-1.2,0.5-2.5,0.4-3.8,0.3c-0.9-0.1-1.4,0.1-1.7,1.1
	c-1,3.3-3.3,5.7-6.8,6.4c-1.1,0.2-1.5,0.6-1.4,1.7c0.1,3.4-0.2,6.9-0.4,10.3c-0.3,5.3-1.1,10.5-2.2,15.6c-0.1,0.3-0.1,0.6-0.1,0.9
	c0.3,0.4,0.6,0.4,0.9,0.3c2.9-0.6,5.6-0.5,7.9,1.6c0.7,0.6,1.2,0.3,1.7-0.1c3.6-2.4,7.2-1.7,10.6,0.4c2.2,1.4,4.1,3.2,4,6.1
	c0,0.9,0.4,1.1,1,1.4c3,1.4,4.1,4.2,4.2,7c0.2,3.4-2.1,5.9-5.5,7c-1.4,0.4-2.8,0.9-4.2,0.5c-0.8-0.2-1.3,0-1.7,0.8
	c-1.7,3.4-4.9,4.3-8.4,4.7c-2.6,0.2-5.1-0.4-7.2-2.1c-1-0.8-1.9-1-3.1-0.6c-2.6,1-5.1,1.2-7.7,0c-0.8-0.4-1.2,0.1-1.4,0.8
	c-1.9,4.6-4.5,8.8-6.7,13.3c-4,8.2-8.7,16-15.1,22.7c-4.5,4.7-9.1,9.2-14.9,12.3c-1.5,0.8-3,1.8-4.4,2.9
	c-17.1,12.8-36.3,20.6-57.3,24.2c-9.6,1.6-19.3,2.2-28.9,1.4c-28.1-2.1-53.3-11.8-75.2-29.8c-11.1-9.1-20.3-19.9-27.8-32.1
	c-1.2-1.9-2.5-2.9-4.8-3.4c-5-1.1-10.2-1.1-15.2-1.5c-5-0.4-9.7,0.6-14.4,1.9c-2.8,0.8-5.7,1-8.6,0.7c-1.7-0.1-3.3-0.7-4.7-1.6
	c-2.1-1.4-2.6-3.2-1.8-5.7c0.5-1.5,1.5-2.6,2.4-3.7c-0.4-0.8-1.1-0.5-1.6-0.5c-1.2,0-2.4-0.2-3.6-0.5c-5.6-1.4-6-4.9-5.3-9.1
	c0.2-1.3,1.2-2.1,2.1-2.8c1.4-1.1,3-2.1,4.4-3.2c-0.1-0.2-0.1-0.4-0.2-0.4c-5.6-2.6-6.3-10-1.4-13.7c0.3-0.2,0.5-0.4,0.8-0.5
	c1.5-0.7,2.3-1.6,1.5-3.5c-0.6-1.4,0.1-2.8,1.2-3.9c1.8-2,4.2-3.3,6.7-4.1c5.1-1.6,10.3-2.3,15.6-1.7c2.1,0.2,4.3,0,6.4,0.6
	c0.9,0.3,1.3-0.2,1.3-1.2c-0.1-1.2-0.1-2.4-0.2-3.6c-0.4-4.6-0.4-9.3,0-13.9C73.8,193.7,73.9,193.2,73.5,192.5z"/>
<path class="st1" d="M161.1,46.8c0-11.1,9-20,20.2-20c11.2,0,20.3,9.1,20.2,20.3c0,10.9-9.3,20-20.4,20
	C170.1,67,161.1,58,161.1,46.8z"/>
<path class="st1" d="M276.1,61.1c0,6.1,0,12.1,0,18.2c0,0.6,0,1.1,0,1.7c-0.1,0.7-0.5,1-1.2,0.8c-2.5-0.9-4.9-1.9-7.4-2.9
	c-0.8-0.3-0.9-1-0.9-1.8c0-1.4,0-2.7,0.1-4.1c0-0.8-0.3-1.3-1.1-1.6c-3.6-1.4-7.3-2.8-10.9-4.3c-0.8-0.3-1.3-0.1-1.9,0.5
	c-0.9,1-1.8,2-2.7,3c-0.7,0.9-1.5,1-2.6,0.5c-2-0.9-4-1.6-6-2.4c-1.5-0.6-1.6-1-0.5-2.2c3.2-3.5,6.4-6.9,9.6-10.4
	c5.2-5.7,10.5-11.4,15.7-17.1c1.7-1.8,1.7-1.8,4.1-0.9c1.3,0.5,2.5,1.1,3.8,1.5c1.6,0.5,2.1,1.5,2.1,3.1c-0.1,5.9-0.1,11.8-0.1,17.7
	c0,0.2,0,0.5,0,0.7C276.2,61.1,276.2,61.1,276.1,61.1z"/>
<path class="st1" d="M229.3,27.1c4.7,0,8.8,1.4,12.4,4.3c1.7,1.3,1.7,1.7,0.3,3.2c-1.3,1.4-2.6,2.9-3.9,4.2
	c-1.2,1.2-1.2,1.2-2.6,0.2c-1.8-1.4-3.8-2.3-6.2-2.3c-4.1-0.1-7.6,2.1-9.3,5.9c-1.8,4-1.2,8.7,1.6,11.7c2.8,3,7.1,4,11,2.5
	c0.4-0.2,0.9-0.4,1.3-0.6c0.7-0.3,1.2-0.1,1.6,0.6c1.1,2.1,2.3,4.2,3.3,6.4c0.6,1.2,0.3,1.6-1.3,2.3c-7.1,3.4-16.5,1.9-22.3-3.6
	c-6-5.7-8-14.4-4.9-22C213.5,32,220.8,27.1,229.3,27.1z"/>
<path class="st1" d="M150.1,41.5c-0.1,1.2-0.9,1.4-1.7,1.7c-3.4,1.4-6.8,2.8-10.2,4.2c-1.2,0.5-3.1,0.6-3.4,1.8
	c-0.3,1,0.8,2.3,1.3,3.5c0.3,0.8,0.7,1.6,1,2.4c0.3,1,0.9,1.1,1.8,0.7c2.8-1.2,5.6-2.3,8.4-3.5c2.3-0.9,2.3-0.9,3.3,1.4
	c0.6,1.3,1.1,2.6,1.6,4c0.5,1.5,0.4,1.8-1,2.4c-2.8,1.2-5.6,2.3-8.4,3.4c-1.9,0.8-1.9,0.8-1.1,2.7c1.1,2.8,2.3,5.6,3.4,8.4
	c0.7,1.7,0.6,1.8-1,2.5c-1.8,0.8-3.7,1.5-5.5,2.3c-2,0.8-2.2,0.8-3-1.3c-2.9-7.2-5.9-14.3-8.8-21.5c-1.4-3.5-2.9-6.9-4.3-10.4
	c-0.8-1.9-0.7-2.1,1.1-2.9c7.2-2.9,14.3-5.9,21.5-8.8c1.8-0.7,2-0.6,2.7,1.1c0.7,1.5,1.3,3.1,1.9,4.7
	C149.9,40.9,150,41.2,150.1,41.5z"/>
<path class="st1" d="M201.9,362.5c1.1-3.4,2.2-6.8,3.3-10.3c0.4-1.2,0.9-1.6,2.2-1.6c4,0,4.1-0.1,4.5,3.9c0.5,4.8,0.9,9.6,1.2,14.3
	c0.1,1.8,0,2-1.8,1.8c-3.1-0.2-3.1,0.7-3.4-3.3c-0.2-2.2-0.4-4.4-0.7-7c-0.9,1.4-1.1,2.7-1.5,3.9c-0.4,1.2-0.8,2.4-1.2,3.7
	c-0.3,0.8-0.2,1.9-1,2.3c-1.1,0.5-2.4,0.2-3.5,0.1c-0.7-0.1-0.8-0.7-0.9-1.3c-0.6-2.2-1.2-4.3-1.8-6.5c-0.2-0.7-0.4-1.4-0.7-2.5
	c-0.8,2.8-0.9,5.2-1.2,7.6c-0.3,2.6-0.3,2.6-3.1,2.6c-0.2,0-0.5,0-0.7,0c-1.5-0.1-1.6-0.2-1.5-1.7c0.6-5.6,1.3-11.3,2-16.9
	c0.1-1.1,0.6-1.4,1.7-1.5c4.2-0.1,4.2-0.1,5.3,3.9c0.8,2.8,1.6,5.5,2.3,8.3C201.6,362.5,201.7,362.5,201.9,362.5z"/>
<path class="st1" d="M127,328.2c-1.1,1.3-2.3,2.1-3.5,2.8c-2.1,1.2-3.2,3-3.6,5.3c-0.1,0.5-0.2,1.1-0.4,1.9c3.2-2.4,6.2-4.5,9.2-6.7
	c1.8-1.3,1.4-1.3,3.3-0.1c0.7,0.5,1.5,1,2.2,1.5c0.1,0.1,0.2,0.3,0.3,0.4c0,0.7-0.6,0.9-1,1.2c-5,3.4-10.1,6.7-15.1,10.1
	c-1,0.7-1.7,0.6-2.6-0.1c-2.1-1.6-2.5-1.1-1.7-4c0.3-1,0.8-2.1,0.5-3.5c-1.2,0.9-2.4,1.6-3.4,2.4c-1.1,0.9-2,0.7-3-0.1
	c-1-0.8-2.2-1.3-1.7-3c1.3-5,2.5-10.1,3.7-15.1c0.2-0.9,0.5-1.9,0.7-2.8c0.2-1.1,0.7-1,1.5-0.5c3.5,2,3.5,2,2.4,5.9
	c-0.8,2.9-1.6,5.8-2.1,9c1.4-1.1,2.8-2.2,4.3-3.3c1.6-1.2,3.1-2.5,4.7-3.7c0.5-0.4,1-0.8,1.7-0.3C124.5,326.4,125.7,327.3,127,328.2
	z"/>
<path class="st1" d="M338.3,297.6c0,5.8-4.7,10.5-10.6,10.4c-5.6,0-10.1-4.7-10.1-10.3c0-5.9,4.6-10.4,10.5-10.4
	C333.8,287.4,338.3,292,338.3,297.6z"/>
<path class="st1" d="M97.1,327.3c-5.8,0-10.3-4.6-10.3-10.4c0-5.7,4.7-10.3,10.5-10.2c5.6,0,10.2,4.7,10.2,10.3
	C107.4,322.6,102.8,327.3,97.1,327.3z"/>
<path class="st1" d="M217.8,358.3c0.1-5.8,4.7-10.1,10.6-10c5.6,0.1,10.1,4.8,10,10.4c-0.1,5.6-4.9,10.3-10.6,10.2
	C222.1,368.8,217.6,364.1,217.8,358.3z"/>
<path class="st1" d="M77.9,300.4c-1.3,1-2.7,2-4,3c-0.7,0.6-1.2,0.7-2-0.1c-2.6-3-2.6-3,0.5-5.4c3.8-2.9,7.6-5.8,11.4-8.7
	c1.6-1.2,1.7-1.2,2.9,0.4c1.6,2,3.2,4,4.6,6.1c2.8,4.2,0.3,9.5-4.6,10.1c-0.5,0.1-1.2,0.1-1.6-0.1c-1.4-0.5-2,0.2-2.5,1.4
	c-0.6,1.6-1.4,3.2-2.1,4.8c-0.6,1.2-0.8,1.2-1.7,0.3c-2.7-3.1-2.7-3.1-1-6.8c0.3-0.7,0.6-1.3,0.9-2
	C79.4,301.9,79.3,301.9,77.9,300.4z"/>
<path class="st1" d="M316.5,325.6c-0.2,0.2-0.4,0.5-0.6,0.7c-0.5,0.5-1,1-1.5,1.5c-1.3,1.2-1.3,1.2-2.6-0.1
	c-3.8-3.8-7.7-7.7-11.5-11.6c-1.3-1.3-1.3-1.4,0-2.6c2.8-2.8,2-2.6,4.6,0c2.7,2.6,2.6,2.7,5.3,0c2.1-2.1,2.1-2.1,0-4.3
	c-0.1-0.1-0.2-0.2-0.3-0.3c-2.7-2.7-2.6-2.7,0.2-5.2c0.9-0.8,1.5-0.7,2.2,0.1c0.9,0.9,1.8,1.8,2.7,2.7c3,3,6,6,8.9,9
	c1.3,1.3,1.3,1.4,0.1,2.6c-3,2.9-2,2.7-4.8,0c-0.1-0.1-0.1-0.1-0.2-0.2c-1.2-0.9-1.9-2.4-3.3-3c-1.6,1.1-2.8,2.6-4.2,3.9
	c-0.6,0.6-0.1,1,0.3,1.4c1.3,1.3,2.6,2.6,3.9,3.9C316.1,324.7,316.5,325,316.5,325.6z"/>
<path class="st1" d="M151.4,351.9c0.3,0.7,0.4,1.4,1,1.7c0.1,0,0.2,0,0.2-0.1c2.5-1.6,2.4-1.6,4.3,0.5c0.6,0.7,0.7,1.2-0.1,1.7
	c-0.1,0.1-0.2,0.2-0.4,0.3c-0.7,0.6-1.8,1-2.2,1.8c-0.4,0.8,0.8,1.7,0.8,2.7c-0.8,0.6-1.9,0.6-2.8,0.9c-1.1,0.4-2,0.6-2.4-0.9
	c-0.2-0.8-0.9-0.7-1.6-0.7c-1.8,0.1-3.5-0.1-5.2-0.8c-1-0.4-1.9-0.9-2.6-1.6c-1.5-1.4-2.3-3.1-1.8-5.1c0.5-2.1,1.8-3.6,4-4
	c1.4-0.3,1.8-0.7,1.8-2.2c0-3.3,2.3-5.2,5.6-5.1c1.7,0.1,3.3,0.7,4.6,1.8c2.8,2.5,2.2,6.5-1.1,8.1
	C152.9,351.4,152.2,351.6,151.4,351.9z"/>
<path class="st1" d="M250.4,356.1c-0.9,1.1-1.2,2.2-0.6,3.5c0.1,0.2,0.2,0.5,0.2,0.7c1.1,3.5,1.1,3.5-2.5,4.6
	c-1.1,0.3-1.6,0.2-1.9-0.9c-1.7-5.4-3.4-10.8-5.2-16.2c-0.4-1.3,0-1.7,1.1-2.1c4.3-1.3,3.3-1.1,4.4,2.1c0.4,1.2,0.8,2.4,1.4,4.2
	c0.8-2.1,1.4-3.7,2-5.3c1.5-4,1.5-4.1,5.5-5.3c0.4-0.1,0.9-0.4,1.6,0c-0.9,2.6-1.8,5.2-2.7,7.8c-0.9,2.6-1,2,1,3.7
	c2.7,2.2,5.5,4.4,8.4,6.7c-1.7,1-3.3,1.2-4.9,1.8c-0.8,0.3-1.4-0.2-2-0.6c-1.4-1.1-2.7-2.2-4.1-3.3
	C251.7,356.9,251.2,356.2,250.4,356.1z"/>
<path class="st1" d="M267,341.3c1.2,3,1.2,3,3.9,1.7c0.7-0.3,1.4-0.7,2.2-1c0.6-0.2,1.3-1.1,1.9-0.4c0.7,0.7,1.1,1.8,1.3,2.8
	c0.1,0.4-0.4,0.6-0.8,0.8c-1.4,0.7-2.9,1.4-4.3,2.1c-0.9,0.4-1.2,0.8-0.7,1.8c0.9,1.9,0.9,2,2.7,1.1c1.9-0.9,3.8-1.8,5.6-2.7
	c1-0.5,1.6-0.3,2,0.7c0,0.1,0.1,0.1,0.1,0.2c1.3,2.6,1.3,2.6-1.3,3.8c-3.1,1.5-6.2,3-9.3,4.4c-1.6,0.8-1.7,0.7-2.4-0.7
	c-2.4-5-4.8-10.1-7.3-15.1c-0.6-1.2-0.2-1.7,0.9-2.2c3.4-1.6,6.8-3.3,10.2-4.9c1.5-0.7,1.5-0.7,2.3,0.9c0.1,0.2,0.2,0.4,0.3,0.6
	c0.9,1.9,0.9,1.9-1,2.8C271.2,339.2,269,340,267,341.3z"/>
<path class="st1" d="M60.7,282.9c0-5,4.7-9.7,10.2-9.7c5.7,0,10.5,4.7,10.5,10.3c0,1.1-0.3,1.7-1.5,1.5c-0.5-0.1-1-0.1-1.4-0.1
	c-1.9-0.2-1.9-0.2-2.2-2.2c-0.3-2.2-1.9-3.9-4-4.3c-2.3-0.4-4.3,0.4-5.7,2.3c-1.3,1.8-1.3,3.9,0,5.8c0.5,0.8,1,1,1.9,0.5
	c2.7-1.4,2.7-1.3,4.1,1.3c0.8,1.5,0.8,1.5-0.7,2.4c-1.2,0.7-2.5,1.4-3.7,2.1c-0.9,0.6-1.7,0.6-2.6-0.1
	C62.6,290.3,60.7,287.4,60.7,282.9z"/>
<path class="st1" d="M341.8,282c1.7,0.9,3.2,1.8,4.8,2.6c0.9,0.5,1.3,0.9,0.7,2c-1.7,3.4-1.6,3.5-5.1,1.7c-4.3-2.3-8.6-4.6-12.9-6.9
	c-1.5-0.8-1.5-0.9-0.8-2.3c1.1-2.2,2.3-4.4,3.5-6.5c1.8-3.2,5.5-4.2,8.7-2.5c3.2,1.7,4.4,5.3,2.8,8.6
	C343.1,279.6,342.5,280.7,341.8,282z"/>
<path class="st2" d="M295.8,340.1c-0.2,0-0.7-0.1-1.1-0.1c-1.1-0.1-1.6-0.6-1.3-1.8c0.1-0.2,0.1-0.5,0.1-0.7
	c0.4-2.1,0.4-2.1,2.5-2.1c1.2,0,2.4-0.2,3.4-1c0.8-0.6,1.4-1.4,0.9-2.5c-0.5-1-1.4-0.9-2.3-0.7c-1.3,0.3-2.6,0.7-3.9,1
	c-0.9,0.3-1.7,0.3-2.6,0.2c-4-0.3-6.2-4.3-4.3-7.9c1.6-3,5.5-5.2,8.7-5c1,0.1,1.7,0.4,1.4,1.6c-0.1,0.4-0.1,0.8-0.2,1.2
	c-0.2,1.8-0.2,1.8-2,1.9c-1.4,0-2.5,0.3-3.3,1.5c-0.7,1-0.2,1.9,1,2c0.7,0.1,1.4-0.2,2.1-0.4c1.5-0.4,3-1,4.6-1.1
	c4.5-0.5,6.6,4.2,5.9,7.1C304.5,337.2,300.5,340.2,295.8,340.1z"/>
<path class="st1" d="M178.3,368.6c-3.5-0.1-6.1-1.6-8.1-4.4c-0.7-0.9-0.6-1.5,0.4-2.1c0.4-0.2,0.8-0.5,1.2-0.8
	c0.9-0.8,1.7-0.6,2.4,0.3c0.9,1.1,2,2.1,3.6,2.2c0.9,0,1.8,0,2.2-1.1c0.3-0.9-0.3-1.5-1-2c-0.6-0.4-1.2-0.8-1.8-1.1
	c-1.2-0.7-2.5-1.5-3.4-2.6c-3-3.3-1.6-8,2.7-9c3.5-0.8,6.7,0.1,9.2,2.8c1.1,1.2,1.1,1.5-0.2,2.5c-0.4,0.4-0.9,0.7-1.3,1
	c-0.7,0.6-1.3,0.5-1.8-0.2c-0.4-0.4-0.8-0.8-1.2-1.1c-0.7-0.5-1.6-0.8-2.5-0.6c-1.2,0.2-1.5,1.2-0.7,2.1c0.4,0.4,1,0.7,1.6,1.1
	c1.2,0.7,2.4,1.3,3.5,2.1c1.8,1.3,2.8,3,2.4,5.3c-0.3,2.4-1.7,3.9-3.8,4.8C180.5,368.4,179.4,368.6,178.3,368.6z"/>
<path class="st3" d="M165.2,154.8c-0.7-0.4-1.3-0.8-1.9-1c-1.8-0.7-3.7-0.8-5.2,0.6c-2.7,2.7-5.7,4.9-9.1,6.6
	c-2.4,1.2-3.8,3.7-4,6.5c-0.1,1.3-0.6,1.7-1.9,1.8c-5.6,0.3-11.2,0.7-16.7,1c-1.8,0.1-3.5,0.3-5.2,0.5c-1.6,0.2-3.1,0.2-4.7,0
	c-4.1-0.4-7.1,1.8-9.7,4.7c-3.2,3.6-4.3,7.7-3.2,12.5c0.5,2.2,0.4,4.4-1.1,6.4c-1,1.3-1.5,2.8-1.9,4.4c-0.6,2.4-0.1,4.6,1.3,6.6
	c1.4,2,1.2,3.8-0.3,5.7c-1.2,1.4-2,3-1.7,5c0.1,0.8,0,1.5-0.9,1.7c-2.2,0.4-3.4,1.9-4.4,3.8c-2.8-1.5-5.5-3-8.2-4.5
	c-0.7-0.4-1.4-0.9-2.2-1c-2.2-0.5-2.8-1.8-2.9-3.9c-0.4-6.2-0.5-12.5-0.2-18.7c0.1-1.4,0.4-2.4,1.9-3.2c3.7-2,3.9-7.1,0.5-9.7
	c-0.5-0.4-0.7-0.8-0.6-1.4c0.9-5.2,2.1-10.3,3.9-15.4c1.6,0.7,3,1.5,4.5,1.8c4.2,0.8,7.9-0.3,11.2-2.9c1.1-0.9,1.8-1.1,2.8,0
	c2.8,3,6.9,3.7,11.4,1.1c0.2-0.1,0.4-0.2,0.6-0.4c1.9-1.3,3.8-2.4,6-0.8c4.7,0.7,8.3-1.3,11.2-4.6c0.9-1,1.6-1.4,2.9-1.5
	c3.9-0.5,8.7-3,9.5-8.1c0.4-2.6,0.1-4.8-2.3-6.3c-0.9-0.6-1.1-1.1-0.6-2.2c0.9-1.9,0.4-3.7-0.7-5.4c-3.3-5.6-9.5-7.2-14.2-5.9
	c-0.1,0-0.3,0-0.6-0.1c-0.3-4.4-3.6-5.7-7.1-7c-1.5-0.5-3,0.1-4.4,0.6c-0.8,0.3-1.6,0.8-2.4,1.1c-0.5,0.2-0.8,0.3-1.2-0.3
	c-2.3-3-2.3-3,0.3-5.8c17.2-18.5,38.1-30.6,62.6-36.5c12.9-3.1,25.9-3.9,39.1-2.8c12.3,1.1,24.2,4,35.7,8.6c0.6,0.3,1.4,0.4,2,1.2
	c-3.3,0.6-6.3,1.5-9.4,2.5c-3.4,1-6.6,2.5-9.5,4.4c-4.8,3.1-9.3,6.6-12.9,11c-1.6,1.9-2.7,4.1-4,6.2c-0.6,0.9-1.2,1.4-2.2,1.5
	c-2.6,0.2-4.9,1.2-7.1,2.6c-2.7,1.7-4.1,4.2-4.2,7.4c-0.2,6.1,1.9,11.1,7.3,14.4c0.3,0.2,0.7,0.3,0.7,1c-2.1,0-4-0.5-6-0.9
	c-0.5-0.1-0.6-0.4-0.7-0.8c-0.5-3.3-1.1-4-4.3-4.8c-0.5-0.1-1.1-0.2-1.6-0.3c-0.4-0.7,0.1-1.3,0.2-1.9c0.3-2.5-0.3-4.6-2.7-5.9
	c-0.6-0.3-0.8-0.7-0.5-1.3c1.7-3.6,0.2-6.7-1.9-9.5c-0.6-0.8-0.7-1.3-0.1-2.1c2.2-2.9,1.4-7.7-2.3-10.6c-1.9-1.5-4-2.3-6.4-2.4
	c-1.2-0.1-1.8-0.4-2.1-1.7c-0.2-1.3-1.2-2.2-2.5-2.7c-3.7-1.5-9.5-1.5-11.6,3.8c-0.4,0.9-0.8,1.1-1.8,1c-5.4-0.7-11.4,4.1-10.8,9.8
	c0.1,1.2-0.2,2-1.4,2.7c-3.7,2.1-5.9,9.2-1.3,13c0.9,0.8,1.1,1.6,0.7,2.7c-1.2,3.4,0.7,7.1,3.1,8.9c1.6,1.3,3.5,1.5,5.4,0.8
	c0.8-0.3,1.6-0.5,2.6-0.9c1.1,3.7,3.6,6,7.2,7.1c1.6,0.5,3.3-0.1,4.7,0.3c1.4,0.4,1.9,2.4,3.4,3.2c2.3,1.2,4.4,1.1,6.6,0
	c1.6-0.8,1.6-0.8,2.8,0.6c1.7,2.1,4,2.6,6.5,1.9c1.7-0.5,2.5-0.1,3.3,1.2c1.1,1.6,2.4,3,4.6,3.2c0.9,0.1,1,0.6,0.9,1.3
	c-0.1,2.7,0.6,5.2,1.2,7.8c0.4,1.8,1.1,3.5,2.6,4.8c0.8,0.7,0.7,1.3-0.1,2c-0.6,0.4-1.1,0.9-1.6,1.4c-2.4,2.6-3.4,5.7-2.3,9.1
	c0.6,1.9,0.2,3.3-0.6,4.9c-1,2-2.4,2.7-4.6,2.4c-3.7-0.5-7.3-1.1-10.4-3.2c-3.1-2.2-5.6-5-6.8-8.7c-1.3-4-1.9-8.1-2.5-12.2
	c-0.5-3.2-0.5-6.4-1.4-9.5c-0.3-1.2-0.7-2.3-1.4-3.3c-1.6-2.4-3.9-3-6.4-1.5c-2,1.2-3.7,2.7-4.8,4.9
	C166.1,153.6,165.9,154.3,165.2,154.8z"/>
<path class="st4" d="M273.9,199.5c0-0.3,0-0.5,0.1-0.8c-0.2-1,0.7-1.3,1.2-1.8c0.9-0.9,2-1.7,2.5-2.8c0.8-1.5,2-2.1,3.6-2.1
	c1.9-0.6,3.4-1.7,4.7-3.1c2.4-2.4,2.9-5.2,2-8.3c-0.3-1-0.8-2,0.4-2.7c1.4,0.6,3.3,0,4.4,1.5c-0.2,1.7-0.4,3.3,0.8,4.8
	c0.5,0.6,0.4,1.1-0.2,1.6c-0.5,0.5-0.8,1.2-1.2,1.7c-0.3,1.2-1,1.9-1.9,2.7c-1.9,1.6-3.3,3.7-3.9,6.2c-1,3.6-0.1,5.5,3.2,7.4
	c6.2,3.5,12.9,5.9,19.8,7.7c0.5,0.1,1.1,0.2,1.4,0.8c-0.8,6.3,2.4,12,2.5,18.1c0,0.8,0.2,1.6,0,2.4c-0.6,0.6-1.3,1.2-1.8,1.9
	c-1.9,2.7-2.4,5.5-0.5,8.4c0.5,0.7,0.9,1.5,1.4,2.2c0.4,5.7,0.5,11.4-1.5,17c-1.7,4.5-2.6,9.2-3.8,13.7c0.2,0.5-0.2,0.9-0.5,1.3
	c-2.1,3.3-4.5,6.5-7.2,9.3c-1.6-0.7-0.7-1.9-0.5-2.8c1.7-5.5,2.9-11.1,3.8-16.8c0.5-3.2,0.2-6.4,0.5-9.6c0.6-5.6,0.8-11.3,0.5-16.9
	c-1.7-1.9-2.4-1.9-4-0.1c-1.1,1.3-2.1,2.6-3.1,3.9c-5.9,8.1-13.1,14.5-22.1,19c-5.4,2.7-10.9,5.5-16.7,7.1
	c-7.5,2.1-15.1,3.6-22.9,3.3c-1.7-0.1-3.3-0.5-4.7-1.4c-1.6-1-1.6-1.6-0.4-3.4c1.5,2.2,3.4,2.3,5.8,1.7c6.1-1.7,12.3-2.8,18.3-4.5
	c1.2-0.3,2.4-0.5,2.6-2c0.2-0.2,0.5-0.4,0.6-0.7c0.8-1.2,0.6-2.1-0.9-2.5c-0.9-0.2-1.9-0.1-2.8,0.1c-3.4,1-6.9,1.9-10.4,2.7
	c-5.8,1.4-11.6,1.8-17.5,1.3c-1-0.1-1.9-0.4-2.8-0.8c-3.1-1.2-3.9-3.1-2.7-6.4c2.6,1.4,5.3,1.3,8.1,0.9c7.1-1.1,14.2-2.4,21-4.5
	c3.2-0.9,3.9-2,4-5.1c0-0.5,0-1,0-1.5c1.2-1.2,2.6-1.7,4.1-2.4c13.2-6,21.7-16.1,25.6-30.1c0.7-2.6,0.9-5.2,0.8-7.8
	c-0.1-5.3-4-8.4-9.2-7.5C274.4,199.8,274.1,199.7,273.9,199.5z"/>
<path class="st4" d="M243.2,150.3c-1.6,0-1.9,0.2-1.7,1.6c0.4,2.5,1.7,4.4,3.4,6.2c1.3,1.4,1.5,1.5,0.6,3c-2.2,3.8-5.1,6.9-9.7,7.9
	c-1.5,0.3-3,0.4-4.4-0.5c-4.7-2.9-10-3.1-15.3-2.6c-3.4,0.3-5.4-0.7-6.5-4c-1-2.8-1.5-5.7-1.4-8.7c0-0.8,0.4-1.4,1-1.8
	c2.6-1.8,3.4-4.4,3.5-7.5c0-2.1,0.1-1.9,2.2-2c3.7-0.1,7.5,0,11.2-0.8c0.4-0.1,0.8-0.2,1.1-0.3c5.8-1.8,8.2-5.9,7.2-11.9
	c-0.4-2.6-1.1-5.1-2.5-7.4c-2.3-3.8-5.8-6-9.9-7.5c-1.5-0.5-1.6-0.6-0.9-1.9c1.7-3.4,4-6.3,6.8-8.8c16.5-3.7,32.5-3.3,47.8,4.7
	c1.9,1,3.4,2.2,4.5,4.1c0.9,1.7,1.9,3.3,2.8,5c1.9,3.7,2.7,7.5,1.8,11.6c-0.3,1.4-0.1,2.9-0.2,4.3c0,0.9,0.1,2-0.8,2.6
	c-1.1-0.4-0.9-1.4-0.9-2.2c-0.1-3-1.6-5.2-4-6.7c-4-2.7-8.4-3.6-13.2-3.1c-4.8,0.5-9.3,1.4-13.4,3.9c-3.7,2.3-6.7,5.2-7.3,9.8
	c-0.2,1.4-0.2,2.7,0.3,4c0.3,0.8,0.7,1.6,0.5,2.5C244.1,145.3,244.3,148.1,243.2,150.3z"/>
<path class="st5" d="M179,265.8c2-0.1,4,0.4,5.9,0.7c5.9,0.9,11.9,1.5,17.9,1.2c3.9-0.2,7.8-0.7,11.5-1.9c0.9-0.3,1.7-0.7,2.9-0.6
	c-0.5,2.6-1,5-1.4,7.5c-0.8,5.6-1.5,11.2-2.4,16.8c-0.7,4.4-1.6,8.8-2.6,13.2c-0.5,2.4-0.9,4.9-1.5,7.3c-0.6,2.2-1.7,3.9-3.4,5.3
	c-3.7,3.1-8.1,4.7-12.9,5.3c-4.4,0.5-8.8,0.4-13.2,0.4c-1.6,0-3.2-0.1-4.8-0.4c-1.1-0.5-2.3,0.1-3.4-0.4l0,0c-0.8-1-0.4-2.1-0.2-3.2
	c1.4-9.1,3.3-18.1,4.5-27.1c0.9-6.6,2.1-13.1,2.7-19.7C178.9,268.6,178.2,267.2,179,265.8z"/>
<path class="st6" d="M238.5,314.3c-2.1,0.8-4.4,0.5-6.6,0.7c-6,0.6-12.1,0.7-18.2,0.6c-1.8,0-1.9-0.3-1.3-2c2-6,3-12.2,4.1-18.4
	c0.6-3.1,1-6.1,1.3-9.2c0.1-1.1,0.6-1.4,1.6-1.6c4-0.7,8-1.5,12-2.2c10.3-2,20.5-4.1,30.3-7.7c4.1-1.5,7.8-3.7,11.6-5.7
	c4.7-2.5,9-5.4,13.4-8.3c3.2-2.1,5.7-5,8.3-7.9c0.6-0.7,1.2-1.5,2.1-2c1.1,1.3,0.5,2.7,0.2,4.1c-1.2,4.1-3.5,7.8-6.2,11
	c-2.6,3.2-5.2,6.5-8,9.5c-2.3,2.5-5.6,4-8,6.5c-4.6,4.6-10.2,8-15.9,11c-1.8,0.9-3.3,2.2-4.7,3.6c-2.7,2.9-6.1,5.1-9.2,7.6
	c-2.5,2-3.9,4.4-5,7.2C239.7,312.1,239.4,313.3,238.5,314.3z"/>
<path class="st3" d="M144.6,181.1c0.3,3.8,0.9,7.7,1.7,11.5c1.1,5.7,3.3,11,6.5,15.8c3.4,5.1,7,10.1,11.1,14.7
	c1.9,2.2,3.5,4.5,5.7,6.5c0.2,0.2,0.4,0.5,0.2,1.1c-4.2,0.4-7.8,2.5-11.3,4.9c-2.5,1.7-5.7,2.1-8.7,2.1c-2.2,0-4.4-0.2-6.6-0.7
	c-2.4-0.5-4.8-1.1-7.3-1c-0.6,0-1.3-0.1-1.7-0.6c-2-2.5-4.9-3.5-7.9-4c-1.5-0.2-1.4-0.9-1.2-1.9c0.3-1.8,0.6-3.6,0.9-5.4
	c0.5-3.2-1-5.4-4.1-6.2c-0.3-0.1-0.6-0.2-0.9-0.2c-0.2-0.5,0.1-0.8,0.4-1.1c3.3-3.5,3-10.1,0.6-13.6c-1.8-2.5-1.6-3.4,0.6-5.6
	c0.8-0.8,1.7-1.7,2.6-2.5c3.3-2.7,4.2-6,3.2-10.1c-0.6-2.2-0.6-2.2,1.7-2.4c4-0.4,7.9-0.9,11.9-1.3
	C142.5,180.9,143.5,180.7,144.6,181.1z"/>
<path class="st1" d="M134.8,149.7c-1.8-1-1.9-1-3.3,0.5c-0.4,0.8-1.2,0.7-1.9,0.5c-2.6-0.8-4.9-0.1-7.2,1c-1.4,0.7-2.4,0.7-3.8-0.1
	c-3-1.9-6.2-2.2-9.3-0.4c-2,1.1-3.5,1-5.2-0.6c-2-1.8-4.5-2.1-7-1.4c-1.8,0.5-3,0.4-4.3-1c-1.8-2-4.2-2-6.6-1.1
	c-2.5,0.9-4.5,2.7-6.7,4.1c-1.4,0.9-2.4,1-3.4-0.5c-2.5-3.8-6-4.4-10.1-3.1c-0.6,0.2-1.2,0.6-1.8,0.3c-0.5-1.6,0-2.9,1.1-4.2
	c1.9-2.4,4.3-4,7.4-4.4c0.5-0.1,0.9,0.1,1.4,0.2c1.4,0.3,2.3-0.5,2.2-2c0-0.4-0.2-0.8-0.2-1.2c-0.4-3.4,2.2-5.7,5.6-4.9
	c1.1,0.3,1.7-0.2,2.1-1.1c0.1-0.3,0.1-0.6,0.1-0.9c0-1.6,0.5-2.8,2-3.7c1.7-1,3.4-1.1,5.3-0.7c0.6,0.1,1,0.5,1.2,1.1
	c0.4,0.8,0.8,1.4,1.8,1.3c1.1-0.1,1.4-1,1.6-1.8c0.5-2.2,2-3.4,4-4.1c3.2-1.1,6.3-0.3,9.3,0.9c1.4,0.6,1.9,2.1,2.2,3.6
	c0.6,2.6,1.6,3,3.6,1.1c0.8-0.7,1.7-1.2,2.6-1.6c2.5-1.2,4.5,0,6.5,1.2c0.7,0.5,0.8,1.3,1,2.1c0.1,0.9,0,1.7,0,2.6
	c-0.1,1.8,0.3,2.1,2,1.5c3.1-1.1,6.1-1.8,9.3-0.3c2.1,1,3.4,2.7,4.3,4.7c0.7,1.5,0.1,2.3-1.6,2.3c-0.2,0-0.5,0-0.7,0
	c-1.1,0.2-2,0.9-1.9,1.8c0.1,1,0.7,1.7,1.7,1.7c1.2,0,2.2,0.5,3.1,1.1c2.4,1.5,2.5,1.7,1.7,4.7c-0.1,0.1-0.2,0.4-0.3,0.4
	C140,148.8,137.4,149.6,134.8,149.7z"/>
<path class="st7" d="M238.5,314.3c0.2-2,1.2-3.8,2-5.6c0.5-1.2,0.8-2.6,2-3.5c1.6-1.3,3.2-2.7,4.8-4c2.3-1.9,4.8-3.4,6.8-5.7
	c1.6-1.8,3.5-2.9,5.5-4.1c2.4-1.4,4.8-2.8,7.3-4.1c1.5-0.8,2.8-1.9,4-3c2.7-2.5,5.4-5,8.5-6.9c2.8-1.8,4.8-4.5,6.8-7
	c2.2-2.7,4.8-5.1,6.5-8.2c1.2-2.2,2.7-4.3,3.6-6.7c0.6-1.7,1-3.4,0.8-5.1c1.9-2.5,3.8-5,5.8-7.5c0.6-0.8,1.1-1.5,1-2.6
	c0.8,3.2,1.2,6.5,0.7,9.9c-0.1,0.4-0.3,0.8-0.3,1.2c0.2,3.4-0.6,6.7-0.5,10c0.1,3.6-0.6,7.1-1.2,10.6c-0.8,4.4-2,8.7-3.4,12.9
	c-0.2,0.6-0.4,1.1,0.2,1.5c-3.6,4.4-7.7,8.3-12.5,11.3c-10.2,6.5-21.2,11-32.9,13.8C248.9,312.8,243.8,314.1,238.5,314.3z"/>
<path class="st4" d="M167.1,185.2c0.6-1.3,0.5-2.7,0.3-4c-0.8-4.8-0.8-9.6-0.5-14.5c0.2-3,0.2-6,1-9c0.7-2.6,1.9-4.9,4.2-6.5
	c0.2-0.1,0.4-0.2,0.7-0.2c0.5,0.7,0.3,1.4,0.2,2.1c-0.8,6.3-0.2,12.6,1,18.8c1.2,5.9,3.7,11.2,7.7,15.7c2.9,3.3,6.6,5.2,11,5.6
	c0.6,0,1.3,0.1,1.9,0.3c1,0.8,0.3,1.7-0.1,2.3c-6.4,10.4-14.1,19.3-25.5,24.5c-0.8,0.3-1.5,1-2.4,0.4c-2.7-2.3-4.6-5.3-6.7-8.1
	c-2.3-3.2-4.4-6.5-6.3-9.9c-3-5.3-4.4-11.1-5.2-17.1c-0.2-1.3-0.3-2.7-0.5-4c-0.1-0.8,0.3-1.1,1.1-1.2c2.2-0.4,2.3-0.3,2.9,1.9
	c0.7,2.5,1.4,4.9,2.5,7.2c0.3,0.6,0.6,1.3,1,1.9c0.4,0.6,0.9,1,1.6,0.6c0.7-0.4,0.6-1,0.4-1.7c-1-2.9-2.1-5.9-2.5-9
	c-0.8-5.7-1.3-11.4,0.3-17.1c0.4-1.4,0.6-3,1.8-4.1c1.2,1.6,0.9,3.5,1.1,5.3c0.5,4.4,0.9,8.7,1.6,13.1c0.5,3.1,1.6,5.9,4.7,7.4
	C165.2,186.3,166.5,187.1,167.1,185.2z"/>
<path class="st8" d="M283.7,135.3c0.1-0.3,0.4-0.5,0.4-0.8c0.1-3,0-6,0.5-9.1c0.6-4.3-1.9-7.8-3.7-11.4c-0.2-0.5-0.7-0.9-0.9-1.4
	c-1-2.9-3.6-3.9-6.1-5c-3-1.4-6.1-2.8-9.3-3.6c-4.1-1.1-8.2-2.4-12.6-2.3c-2.2,0-4.3,0.1-6.5,0c-5.4-0.2-10.8,0.8-16.1,1.7
	c-0.6,0.1-1.1,0.3-1.5-0.3c0.6-0.9,1.5-1.5,2.4-2c3-1,5.9-2.3,9.1-2.8c5.3-0.8,10.6-1.6,15.9-0.7c3.7,0.6,7.3,0.4,11,0.7
	c4,0.3,7.6,1.9,11.1,3.5c2.3,1,4.5,2.3,6.9,3.4c2.8,1.3,4.7,3.4,6.1,6.2c2.3,4.6,4.6,9.2,5.5,14.3c0.7,4.4,1.4,8.8,1.8,13.3
	c0.4,4.6,0.9,9.2,0.6,13.9c-0.5,7.2-0.8,14.5-1.2,21.7c-1.6,1.5-3.2,2.9-4.2,4.8c-1-0.2-2-0.6-3.1-0.5c-0.7,0.1-1.2-0.3-1.2-1
	c0.5-1,0.8-2.1,1.2-3.1c1.1-3.6-0.1-6.6-2.5-9.2c-0.2-0.2-0.5-0.6-0.7-0.6c-2.1-0.3-3-2-4.2-3.5c-2.1-2.7-5.1-3.6-8.6-2.8
	c-2.8,0.6-5,1.9-6.3,4.5c-0.6,0.5-1.3,0.4-2,0.1c-0.6,0.1-0.9-0.4-1.3-0.6c-0.5-0.2-0.9-0.2-1.4,0c-0.3,0-0.6,0.1-0.8,0.1
	c-1.2,0.3-2.4,0.6-3,1.9l0,0c-0.9,0.6-1.7,1.5-2.9,1.5c-0.2,0-0.3-0.1-0.5-0.1c-0.9-0.3-1.9-0.3-2.8,0c-0.2,0.1-0.3,0.1-0.5,0.2
	c-1-0.3-1.4-1.3-1.9-2c-1.3-1.6-1.1-2,1.1-2.5c0.3,0.1,0.5,0.1,0.8,0.2c1.1,0.1,2.2,0.5,3.3-0.2c0-0.3,0.2-0.4,0.4-0.4
	c0.7-0.5,0-1.4,0.5-2c0.8-0.5,1.5-0.2,2.3,0c2.5,0.7,5.1,0.5,7.6,0.3c5.7-0.5,10.2-6.9,9.1-12c-0.1-0.8,0.4-1.3,1-1.8
	c3-2.4,5.4-5.3,6.5-9.1C282.9,136,283.1,135.5,283.7,135.3z"/>
<path class="st9" d="M297,174.6c-0.6-0.5-0.4-1.2-0.4-1.8c-0.3-5.1,0.4-10.2,0.6-15.3c0.2-3.7,0.5-7.3,0.3-11
	c-0.3-5.1-0.4-10.3-1.7-15.4c-0.1-0.3-0.2-0.6-0.1-0.9c0.1-5.9-2.4-11.1-4.8-16.3c-0.4-0.9-1-1.8-1.3-2.8c-1.3-3.5-4.5-4.8-7.5-6.3
	c-3.2-1.7-6.6-3.2-10-4.6c-2.9-1.2-5.9-1.3-8.9-1.4c-3.3-0.1-6.7-0.3-10-0.9c-1.5-0.3-3-0.3-4.5,0.1c-0.8,0.2-1.6,0.3-2.4,0.3
	c-4.9-0.3-9.4,1.2-13.9,2.8c-0.7,0.3-1.4,1-2.1,0c4.6-4.1,10.1-6.5,15.9-8.2c2.9-0.9,5.9-1.3,8.9-1.4c7.5-0.3,15,0,22.4,1.5
	c2.5,0.5,5,1.2,7.4,2.1c6,2.2,11,5.9,14,11.7c1.8,3.5,3.7,7.1,4.2,11.1c0.6,4.2,0.9,8.4,0.4,12.6c-0.8,7.2-1.2,14.5-0.6,21.7
	c0.2,2.5,0.5,4.9,1.2,7.3c0.7,2.4,1.3,4.8,1.9,7.2c0.1,0.5,0.4,1.2-0.1,1.6c-1.5,1.4-1.7,3.3-2.3,5.3
	C301.2,172.5,299.1,173.4,297,174.6z"/>
<path class="st4" d="M270.7,199.6c0,0.2-0.1,0.3-0.1,0.5c-4.2,6.4-10.2,11.1-15.9,16.1c-1.7,1.5-3.8,2.3-6,2.8
	c-8.7,1.9-17.6,2.8-26.5,3.8c-1.4,0.2-3,0.5-4.4-0.6c0.3-1.9,1.3-3.6,2.2-5.3c2.7-5.1,5-10.3,7.4-15.5c1.3-2.7,2.3-5.6,3.4-8.4
	c0.3-0.7,0.5-1.3,1.3-1.6c3.4-1.3,5.3-3.9,6.1-7.4c0-0.1,0.2-0.2,0.3-0.4c1.5,0,1.6,1.4,2.1,2.3c1,1.8,2.1,3.4,4.1,4.1
	c0.9,0.3,1.5,1,1.7,1.9c0.7,3.8,6.7,6.4,10.3,5.3c1.9-0.5,3.4-0.3,5,0.7c2,1.4,4.3,1.6,6.7,1.3C269.1,199.3,270,198.8,270.7,199.6z"
	/>
<path class="st1" d="M156,114.1c0.6-1.1,1.4-1.6,2.7-0.9c0.6,0.4,1.3,0.1,1.7-0.4c0.5-0.6,0.6-1.3,0.1-2c-0.5-0.8-1-1.6-1.1-2.6
	c-0.7-4.6,3.7-7.7,7.7-7.2c0.5,0.1,0.9,0.3,1.1,0.8c0.3,0.8,1,1.3,1.9,1.1c1-0.3,1.3-1.1,1.3-2.1c0-0.5,0-1,0.1-1.4
	c0.4-1.7,1.1-3.3,2.9-3.8c2-0.6,4.1-0.7,6,0.6c1.1,0.8,1.2,1.7,0.3,2.7c-0.6,0.7-0.9,1.3-0.4,2.1c0.6,0.9,1.5,0.9,2.3,0.5
	c1.2-0.7,2.5-0.6,3.7-0.4c4.5,0.5,6.9,4.4,5.5,8.7c-0.3,0.9-0.6,1.6-1.8,1.4c-0.5-0.1-1.1,0-1.6,0.2c-0.5,0.2-1,0.6-1,1.2
	c-0.1,0.7,0.4,1,0.9,1.3c0.3,0.2,0.6,0.2,0.9,0.3c1.2,0.1,2.5,0.2,3.2,1.4c0.8,1.4,1.4,2.9,1.4,4.5c0,1.3-0.7,2.2-1.9,2.8
	c-0.9,0.5-2.1,0.8-1.7,2.2c0.4,1.5,1.7,1.2,2.8,1.2c0.2,0,0.5,0,0.7,0c2.5,0.2,3.2,1.1,2.9,3.6c-0.1,1.1-0.7,1.9-1,2.9
	c-0.4,1.6,0.2,2.4,1.9,2.5c1.1,0,2.2,0,3.3,0.1c0.7,0.1,1.3,0.4,1.5,1.3c0.1,0.9-0.5,1-1.1,1.2c-0.8,0.3-1.5,0.8-2.3,1.3
	c-3.4-1.8-7.7-1.2-10.8-3.9c-1.3-1.1-3-1.4-4.8-1.2c-2.7,0.2-5-0.6-7-2.4c-1-0.9-2.3-1.5-3.6-1.8c-1.6-0.3-2.2-1.3-2.3-2.8
	c0-1.5-0.5-3-1.5-4.2c-1.4-1.6-3.1-2.4-5.3-2.2c-1.9,0.2-3.2-0.6-3.9-2.4c-0.4-1.1-1.2-1.9-2.2-2.5
	C156.6,115.3,155.8,115.1,156,114.1z"/>
<path class="st10" d="M161.2,317.1c-5-1.5-8.7-4.9-11.6-9c-2.1-3-2-6.7-1.5-10.2c0.5-3.7,1.5-7.3,2.5-10.9c1.3-4.9,1.9-10,2.5-15.1
	c0.7-5.8,1.3-11.6,1.9-17.3c0.1-0.4-0.1-1.1,0.5-1.2c0.6-0.2,0.7,0.4,1.1,0.7c3.2,3.3,6.9,5.9,11,8c0.5,0.3,1.1,0.3,1.4,0.8
	c-0.4,5.7-1.8,11.2-2.5,16.8c-1.3,11.4-2.9,22.8-4.9,34.1C161.4,314.9,161.7,316.1,161.2,317.1z"/>
<path class="st1" d="M299,185.2c-0.4-0.8-1.3-1.2-1.9-1.7c-1.7-1.4-1.8-2.6-0.5-4.3c0.9-1.2,2-2.4,3.5-2.9c1.7-0.6,3.4-1,4.8,0.8
	c0.2,0.3,0.6,0.5,1.1,0.2c0.1-1.2,0.1-2.5,0.2-3.7c0.2-2.2,1.7-4,3.7-4.5c2.2-0.5,3.9,0.1,5.1,2.1c0.1,0.1,0.2,0.2,0.4,0.4
	c1.1-0.3,1.4-1.2,1.3-2.2c-0.3-2.5,1-4,3.1-5.1c2.6-1.4,5.3-0.5,6.5,2.2c0.9,2,0.9,2,3.2,1.5c2.2-0.4,4.3-0.3,6.1,1.1
	c0.5,0.4,0.8,0.8,0.3,1.3c-0.1,0.1-0.1,0.1-0.1,0.2c-0.5,1-0.8,2,0.2,2.8c1,0.7,1.9,0,2.5-0.8c1.4-1.6,3.1-1.8,5-1.4
	c1.5,0.3,2.8,2.3,2.5,3.8c-0.2,1-1.5,0.9-2,1.6c-0.4,1.5-0.4,2.9-1.6,4.3c-1.8,2-3.5,3.1-6.3,3.2c-3.7,0.2-7.2,1.5-9.8,4.4
	c-1.3,1.5-2.6,1.4-4.2,0.3c-3.8-2.7-8-3.3-12.5-2c-0.9,0.3-1.8,0.4-2.6,0c-2.3-1.2-4.6-1.7-7.2-1.3
	C299.7,185.7,299.3,185.5,299,185.2z"/>
<path class="st8" d="M273.9,199.5c2.6-1.6,4.9-0.8,7.1,0.7c2.2,1.5,3.5,3.6,3.6,6.4c0.3,9.2-2.9,17.1-8.5,24.3
	c-1.7,2.1-3.3,4.3-5.2,6.2c-3.8,3.8-8.2,6.8-13.3,8.7c-1.4,0.5-2.4,1.9-4.1,1.8c-0.9-1.2-2-1-3.2-0.6c-4.5,1.4-9,2.8-13.7,3.2
	c-6.3,0.6-12.5,1.2-18.8,0.3c-0.8-0.1-1.6-0.3-2.3-0.5c-3.5-1.1-3.9-3-1.3-5.7c1.8,2.8,4,2.9,7.2,2.3c5.2-1.1,10.3-3.1,15.6-3.6
	c1.2-0.1,2.3-0.6,3.4-1c3.3-1.3,6.6-2.9,10.1-3.9c3.4-1,6-3.2,9-5c7.3-4.4,13-10.2,16.6-18.1c1.4-3,2.2-6.2,2.6-9.4
	c0.4-3.3-0.4-4.2-3.7-4.9c-0.5-0.1-0.9-0.2-1.3-0.6C273.6,199.8,273.6,199.6,273.9,199.5z"/>
<path class="st11" d="M161.2,317.1c-0.7-1.1-0.6-2.3-0.4-3.5c0.7-4.2,1.6-8.4,2.2-12.6c0.4-2.7,0.7-5.3,1-8c0.3-2.7,0.9-5.3,1.2-8
	c0.2-2.1,0.3-4.3,0.7-6.4c0.6-3.8,1.2-7.5,1.9-11.2c0.2-1.1-0.1-2.2,0.5-3.3c0.2-0.4,0.2-0.9,0.7-1.2c3.3,1,6.7,2,10,2.9
	c0.5,1.9,0.3,3.7,0.2,5.6c-0.2,4.3-1.2,8.5-1.7,12.7c-0.6,4.8-1.4,9.6-2.1,14.3c-1,6.2-2.1,12.3-3.1,18.5c-0.2,1-0.3,2-0.5,3
	C168.2,319.4,164.5,318.9,161.2,317.1z"/>
<path class="st12" d="M64.3,147.7c1.5-1,3.1-1.4,4.9-1.5c1.8,0,3.4,0.2,5,1.3c1.5,1,2.2,2.6,3.5,4c2.1-1.3,4.1-2.7,6.2-4
	c1.7-1.1,3.5-1.8,5.6-1.7c1.8,0.1,3.3,0.6,4.3,2.2c0.6,1,1.4,1.3,2.6,0.8c3.2-1.2,6.3-0.9,8.8,1.7c1,1,1.9,1.4,3.1,0.5
	c0.4-0.3,0.8-0.5,1.3-0.7c3.5-1.6,6.8-1.3,9.9,1c0.8,0.6,1.3,0.7,2.1,0.3c2.8-1.7,5.7-2.5,8.8-1.2c0.4,0.2,0.8,0,1.1-0.1
	c0,0.7,0.2,1.3,0.5,1.8c0.9,1.7,0.5,3.3-0.9,4.6c-2.2,2.1-4.6,3.4-7.7,3.1c-1-0.1-1.7-0.3-1.5-1.6c0.2-1-0.3-1.8-1.2-2.1
	c-1.1-0.3-1.6,0.5-2,1.2c-1.6,2.8-5.7,4.9-8.8,4.5c-1.1-0.1-1.9-0.8-2.7-1.4c-1.1-0.8-2.1-1.7-3.2-2.5c-0.8-0.7-1.5-0.6-2.2,0.3
	c-2.6,3.5-8.1,4.9-12,3.3c-1.9-0.8-3-2.3-3.3-4.4c-0.1-0.9-0.1-2.2-1.4-2c-1.1,0.1-1.3,1.2-1.5,2.2c0,0.3-0.1,0.6,0,1
	c0.1,0.9-0.3,1.4-1.2,1.4c-2.3,0.2-4.6,0-6.8-0.7c-1.7-0.6-2.5-1.9-2.6-3.6c-0.1-1.1,0-2.2,0.2-3.3c0.1-0.6,0.1-1.3-0.6-1.6
	c-0.8-0.3-1.4,0.1-1.8,0.8c-0.4,0.6-0.7,1.2-0.9,1.9c-0.3,0.9-0.7,1.2-1.5,0.6C66.2,152,64.4,150.4,64.3,147.7z"/>
<path class="st9" d="M273.7,200.1c0.7,0,1.4-0.1,2.2,0c2.1,0.2,3.5,1.7,3.5,3.7c0,3.6-0.9,7.1-2.3,10.4c-2.3,5-5.1,9.7-9.3,13.5
	c-2.5,2.3-5.3,4-8.1,5.9c-1.2,0.9-2.5,1.6-3.8,2.5c-1.7,1.3-3.8,2-5.8,2.7c-3.4,1.1-6.6,2.7-10,3.9c-1.4,0.5-2.9,0.9-4.4,1
	c-2.8,0.3-5.6,1.1-8.3,2c-2.9,1-5.9,1.1-8.8,1.9c-2.3,0.6-4-0.9-4.5-3.4c1.3-1.4,2.9-2.1,4.8-2.5c8.4-2,16.9-4.1,24.8-7.7
	c7.7-3.6,14.4-8.4,19.9-15c3.2-3.8,5.9-7.9,8-12.4C272.5,204.5,273.3,202.4,273.7,200.1z"/>
<path class="st11" d="M192.4,251.3c-3,0.2-5.8-0.5-8.1-2.4c-0.5-0.6-0.2-1.2,0.1-1.8c2.1-4.1,3.7-8.5,6.2-12.4
	c2.1-3.3,2.7-7.3,4.6-10.8c3.5-6.5,7.4-12.7,10.3-19.4c3.4-7.7,6.2-15.7,9.8-23.4c0.4-0.9,0.8-1.9,1.6-2.6c3.1-0.2,5.9,0.6,8.1,2.9
	c-4.1,7.7-7.3,15.8-11.1,23.6c-6.4,13-12.4,26.2-18.4,39.4C194.5,246.7,192.9,248.7,192.4,251.3z"/>
<path class="st5" d="M192.4,251.3c-0.3-0.4-0.8-0.6-0.4-1.3c1.3-2.5,2.5-5.1,3.7-7.7c4.6-9.9,9.1-19.8,13.7-29.7
	c1.1-2.3,2.2-4.6,3.4-6.9c3.2-6.2,5.7-12.6,8.7-18.9c0.8-1.6,1.6-3.1,2.3-4.7c0.2-0.5,0.5-0.8,1.1-0.8c3.9,2.5,3.3,6.3,2.6,9.9
	c-0.9,4.9-3,9.4-5.3,13.8c-4.1,7.8-8,15.6-12.1,23.4c-2.7,5.1-5.1,10.5-7.6,15.7c-0.4,0.9-0.8,1.9-1.3,2.8
	C199.4,250.4,196.6,251.8,192.4,251.3z"/>
<path class="st10" d="M216.9,178.5c-0.7,2.5-1.8,4.8-2.9,7.1c-2.3,5-4.1,10.2-6.3,15.2c-1,2.3-1.9,4.7-3.3,6.9
	c-0.7,1.1-1,2.3-1.6,3.5c-1.1,2.4-2.5,4.6-3.9,6.9c-2.5,4.2-4.9,8.6-6.3,13.4c-0.5,1.6-1.3,3.1-2.2,4.5c-2,3-3.3,6.4-4.7,9.6
	c-0.5,1.2-1.5,2.1-1.6,3.4c-1.6-0.6-2.5-1.9-3.3-3.3c-1-1.7-1.4-3.6-0.2-5.4c1.7-2.4,2.7-5.1,3.8-7.7c2.9-7,6.6-13.6,9.7-20.5
	c2.5-5.6,5-11.2,7.5-16.8c2-4.6,4-9.3,7.5-13C211.3,180,213.6,178,216.9,178.5z"/>
<path class="st12" d="M299,185.2c1.9-0.1,3.7-0.7,5.6,0c0.4,0.2,1,0.1,1.3,0.4c1.5,1.3,3,0.9,4.7,0.5c4-1,7.9-0.4,11.4,1.9
	c0.3,0.2,0.5,0.4,0.8,0.6c1.7,1.1,1.7,1.2,3.1-0.4c3.1-3.4,7.2-4.6,11.6-4.8c1.5-0.1,2.6-0.3,3.3-1.7c0.2-0.5,0.7-0.9,1.1-1.2
	c1-0.9,1.9-1.8,1.7-3.2c0-0.1,0.3-0.3,0.5-0.5c0,2,0.2,2.3,2,2.6c0.4,0.1,0.8,0.1,1.2,0.1c2.8,0.4,3.8,1.8,2.9,4.5
	c-1,3.2-3.3,4.1-6,4.2c-0.6,0-1-0.3-1.5-0.7c-1.2-0.9-2-0.7-2.4,0.8c-0.1,0.4-0.1,0.8-0.1,1.2c-0.4,3.7-2.3,5.6-6,5.9
	c-2.2,0.2-4.3,0.2-6.3-0.8c-1-0.5-2-0.9-2.4-2.2c-0.2-0.8-0.9-1.2-1.6-1.1c-0.8,0.1-1.2,0.7-1.5,1.4c-0.4,1.2-0.9,2.3-1.7,3.4
	c-1.6,2.2-3.8,2.9-6.3,2.7c-2.4-0.3-5-0.4-6.4-3c-0.4-0.7-0.8-0.6-1.5-0.1c-2.7,2-5.7,1.9-8.7,0c-2.8-1.8-3.6-3.7-2.7-6.9
	c0.3-1.1,0.8-1.9,2.1-1.8C298.3,186.8,298.7,186.1,299,185.2z"/>
<path class="st1" d="M244.7,168.2c0.3-0.4,0.6-0.7,0.9-1.1c1.3-1.4,1.6-1.4,2.6,0.2c0.4,0.7,1,1.4,0.7,2.4c-0.2,0.6,0.3,1.1,0.8,1.3
	c0.6,0.2,1.1-0.1,1.5-0.5c0.3-0.4,0.6-0.8,0.8-1.2c0.6-1.1,1.5-1.2,2.7-1c0.8,0.1,1.4,0.4,1.2,1.4c-0.1,0.3-0.1,0.6,0,1
	c0.1,0.8,0.6,1.3,1.3,1.5c0.8,0.1,1.4-0.3,1.7-1c0.5-1.2,0.9-2.4,1.3-3.6c0.4-1,1-1.6,1.9-2c1.5-0.7,3.1,0.3,3.3,1.9
	c0.2,2,0.7,2.8,1.6,2.7c1.6-0.2,1.5-1.6,1.8-2.7c0.2-0.9,0.4-1.9,0.7-2.8c0.9-2.6,3.1-3.6,5.6-3.8c2.5-0.2,4.6,0.9,6.2,3.2
	c-0.9,0.5-1.7,0.9-2.4,1.4c-1,0.8-1.3,1.7-0.8,2.5c0.7,0.9,1.5,0.7,2.3,0.2c0.3-0.2,0.6-0.3,0.9-0.4c3.2-1.1,6,1,5.7,4.4
	c-0.1,1-0.4,2-0.7,3c-0.3,1.4-0.9,2.3-2.6,1.8c-0.3-0.1-0.6,0.2-0.9,0.3c-0.2,2.6-2.1,2.5-4,3.3c-3.9,1.5-7.3,1.3-10.9-0.5
	c-2.7-1.3-5.8-0.8-8.7-0.1c-1.7,0.4-3.1,0.1-4.5-0.9c-1.2-0.9-2.4-1.5-3.9-1.8c-1.1-0.3-2-0.9-2.7-1.9c-1-1.5-2.1-2.8-3.5-3.9
	C243.4,170.1,243.6,169.2,244.7,168.2z"/>
<path class="st13" d="M101.7,229.9c3.1,0.8,6.2,1.6,9.5,1.3c1.6-0.1,3.3-0.7,4.9-0.4c0.9,1.1,0.6,2.2,0.3,3.4
	c-0.5,2.1-1.3,4.1-2.2,6c-0.6,1.4-0.8,2.9-0.8,4.4c0,1.5,0.2,2.7,1.8,3.2c0.6,0.2,1.1,0.6,1.3,1.3c0,1.9-1,3.5-1.5,5.3
	c-0.4,1.5-0.9,2.9-1.2,4.4c-0.2,1.1-0.7,1.6-1.7,1.4c-5-0.7-10.1-0.9-15.1-1.9c-1.8-0.4-1.9-0.5-1.8-2.2c0.3-3.9,0.6-7.8,0.9-11.7
	c0-0.2,0.2-0.4,0.3-0.7c0.9,0.6,0.6,1.6,0.9,2.8c0.7-2.4,1.1-4.3,1.5-6.3C99.5,236.6,100.5,233.2,101.7,229.9z"/>
<path class="st14" d="M110.8,227.9c-2.4,0.1-4.7-0.9-7.1-1.1c-0.7-0.1-1.1-0.5-0.6-1.3c1.4-2.5,1.1-4.9-0.4-7.2
	c-1.2-1.8-0.8-3.5,0.5-5c0.9-1,1.6-2.2,2.1-3.5c0.6-1.6,0.5-3.2-0.4-4.6c-2.1-3.5-1.8-7,0.3-10.4c1.6-2.5,1.3-5.3,0.7-7.9
	c-1.5-5.8,3.1-11.5,7-13c2.8-1.1,4-0.8,6.1,1.5c0.9,1.1,2,2.1,2.6,3.4c0.7,3.4-1.5,5.7-3.3,8.1c-0.8,1.1-1.8,2-2.8,2.9
	c-1.7,1.5-2.3,3.4-2.1,5.6c0.3,2.4,0.1,4.8-0.9,7c-0.4,1-0.6,2-0.5,3c0.3,2.9,0.3,5.7-1.3,8.4c-0.2,0.3-0.3,0.8-0.2,1.2
	c1.2,3.4-0.3,7,0.8,10.4C111.4,226.2,111.5,227.1,110.8,227.9z"/>
<path class="st12" d="M156,114.1c0.3,0.2,0.6,0.6,1,0.7c1.7,0.6,2.7,1.7,3.2,3.3c0.5,1.5,1.5,1.9,2.9,1.8c1.6-0.1,3.1-0.2,4.6,0.9
	c2.1,1.6,3.2,3.5,3.2,6.1c0,1.3,0.2,2,1.7,2.2c1.6,0.3,3.1,1,4.4,2.3c1.4,1.4,3.1,2.1,5.2,1.9c3.1-0.3,5.9,0.4,8.1,2.7
	c0.5,0.5,1.1,0.7,1.7,0.6c2.6-0.2,4.8,0.8,6.8,2.4c-0.9,1.5-1.8,3-1.4,4.9c0.2,0.8-0.2,1.2-1,1.3c-0.9,0.2-1.9,0.4-2.8,0.1
	c-1.3-0.4-1.9-1.3-1.7-2.7c0.1-0.6,0.3-1.1-0.3-1.5c-0.6-0.5-1.2-0.2-1.8,0.1c-1.3,0.7-2.7,1.5-4,2.1c-1.4,0.6-2.8,0.7-4.1-0.2
	c-0.7-0.5-1.4-0.9-1.6-1.7c-0.3-0.8,0.7-1.1,1.1-1.7c0.3-0.6,1-1.2,0.4-1.9c-0.7-0.8-1.4-0.5-2.1,0c-0.2,0.1-0.4,0.3-0.6,0.4
	c-3.3,2.2-6.5,1.9-9.2-0.9c-0.8-0.8-1.2-1.8-1.4-3c-0.4-2-1-2.4-3-2c-0.7,0.1-1.4,0.4-2.1,0.6c-3.5,0.9-4.7,0.1-5.8-3.4
	c-0.5-1.5-0.8-3.3,0.9-4.6c0.9-0.6,0.6-1.4-0.1-2c-0.4-0.3-0.9-0.6-1.4-1C153.9,120.2,153.6,116.8,156,114.1z"/>
<path class="st7" d="M217.8,222.1c3.5,0.1,7-0.4,10.4-0.9c3.2-0.4,6.5-0.5,9.7-1.1c3.8-0.7,7.7-1.3,11.5-2.1c2.3-0.5,4.2-1.7,6-3.4
	c3.2-3,6.8-5.6,9.8-8.8c1-1.1,2.2-2.1,2.9-3.5c0.6-1.1,1.5-1.8,2.6-2.3c-2,5.7-4.6,11-8.7,15.6c-1.5,1.7-2.8,3.7-4.7,5.1
	c-7.1,4.9-15.3,6.8-23.6,8c-2.3,0.3-4.5,0.8-6.7,1.7c-3.9,1.5-8.1,1.6-12.2,2.3c-0.7,0.1-1.7,0.3-1.7-1
	C214.4,228.3,216,225.2,217.8,222.1z"/>
<path class="st4" d="M71.9,237.9c1.8-0.5,3.6-0.1,5.4-0.3c1-0.1,1.9-0.1,2.7-0.6c0.8-0.5,1.2-1.1,0.6-2c-0.9-2.5-3.2-3.5-5-5.1
	c1.1-1.8-0.1-2.9-1.2-4c0.9,0,1.9,0,2.8-0.1c1.3-0.2,2.5-0.6,2.5-2.3c1.2-0.2,2,0.6,2.8,1.1c4,2.6,7.6,5.8,11.5,8.5
	c-0.1,3.8-0.4,7.6-0.8,11.4c-0.1,1.2-0.1,2.4-0.1,3.6c0,1.3,0.1,2.6-0.6,3.7c-0.5,1.2-1.5,1.5-2.7,1.5c-6-0.1-11.9,1-17.8,2.2
	c-1.8,0.4-3.5,0.9-5.2,1.7c-2.9,1.4-5.9,2.3-9.1,2.7c-1.1,0.1-2.2,0.3-3.3-0.2c-0.6-1.4,0.7-1.6,1.4-1.9c3.1-1.1,6.3-2.4,9.6-2.9
	c4.3-0.6,8.4-1.9,12.4-3.5c2-0.8,2-1.1,0.3-2.6c1-0.7,2.2-0.3,3.3-0.5c2-3,1.5-4.4-1.7-5.8c-1.7-0.7-3.6-0.5-5.3-1.2
	C74.3,239.8,73.4,238.6,71.9,237.9z"/>
<path class="st12" d="M351.8,238.5c1.1,0.5,2.3,0.4,3.5,0.4c2.3,0.2,3.4,1.2,4,3.7c0.4,1.5-0.6,3.6-2.2,4.5
	c-1.1,0.6-2.2,0.9-3.4,0.9c-0.7,0-1.1-0.1-1.5-0.8c-1-1.7-2.5-1.6-3.3,0.2c-0.1,0.3-0.2,0.6-0.4,0.9c-1.1,2.9-3,4.3-6.1,4.4
	c-1.4,0-2.9,0.2-4.2-0.5c-0.6-0.3-1.2-0.6-0.7-1.4c0.6-0.9,0.2-1.7-0.6-2.3c-0.9-0.7-1.7-0.3-2.4,0.3c-1.5,1.3-3.4,1.7-5.3,2.1
	c-2.2,0.4-4.1-0.3-5.6-2c-0.6-0.7-1.1-1.3,0.2-1.8c0.2-0.1,0.4-0.2,0.6-0.4c0.6-0.6,0.8-1.2,0.3-1.9c-0.4-0.7-1.1-0.7-1.7-0.4
	c-1.9,0.9-3.7,0.7-5.6,0.2c-1.4-0.4-2.5-1.1-3.3-2.2c-1.1-1.5-1.7-3.1-0.8-4.9c0.8-1.8,2.1-3,4.1-3.3c0.7-0.1,1.2-0.2,1.4,0.8
	c0.2,1.2,1,1.7,2.3,1.6c1.8,2.6,4.4,2.8,7.3,2.5c2.9-0.3,5.2,1.8,7.7,3c2,1,4,1.4,6.2,1.2c1.1-0.1,2.2-0.1,3.3,0
	c1.6,0.1,2.7-0.5,3.6-1.9C349.9,240.2,350.6,239.1,351.8,238.5z"/>
<path class="st1" d="M43.6,183.6c0.5-1.2,1.2-2,2.5-2.2c1.8-0.3,1.9-0.5,1.7-2.3c-0.3-2.5,0.6-4,2.9-4.9c1.7-0.7,2.3-0.5,3.7,1
	c1,1.1,1.6,1.1,2.4-0.1c0.4-0.6,0.7-1.2,1-1.9c1.8-3.8,6.3-4.5,8.9-1.3c0.9,1.1,1.7,1.4,3,1.2c2.4-0.4,3.8,0.5,4.7,2.8
	c0.3,0.7,0.7,0.9,1.4,1.1c2.3,0.5,3.1,1.7,2.8,4.3c-0.1,0.7,0.2,1,0.8,1.2c0.5,0.1,0.9,0.3,1.4,0.3c1.3,0.2,2,0.8,2.2,2.1
	c0.2,1.5-0.1,2.5-1.4,3.3c-0.8,0.5-1.7,0.9-2.7,1c-0.2,0.1-0.4,0.1-0.5,0c-2.9-2.5-6-4.1-9.9-4.8c-2-0.4-3.7-0.8-5.4,0.3
	c-1.9,1.2-3.7,1.1-5.6,0c-1.6-0.9-3.3-0.8-4.8,0.1c-1.5,0.9-3.1,1.1-4.8,0.7c-0.9-0.2-1.9-0.2-2.9,0.1
	C43.4,186.1,43.1,185.2,43.6,183.6z"/>
<path class="st15" d="M110.8,227.9c0-0.6,0-1.1-0.1-1.7c-0.4-2.2-1.1-4.3-0.4-6.5c0.4-1.3-0.2-2.7-0.6-4c-0.2-0.8-0.3-1.6,0.2-2.3
	c1.7-2.2,1.6-4.8,1.3-7.3c-0.2-1.6,0-3,0.6-4.4c1-2.1,0.9-4.2,0.7-6.5c-0.2-2,0.2-4,1.9-5.5c2.6-2.4,5.1-5,6.4-8.4
	c0.3-0.8,0.4-1.7,0.6-2.5c1.4,2.7,3.4,5.1,3.7,8.3c0.2,2.1-0.5,3.7-2,5.1c-1.2,1.1-2.4,2.4-3.6,3.5c-2.3,2.2-3,5.7-0.5,8.3
	c2.9,3.1,2,8.4-0.3,11c-1.1,1.3-2,2.7-2.7,4.2c-1.1,2.3-1.2,4.6,0.4,6.8c0.3,0.4,0.6,0.7,0.4,1.5C114.9,228,112.9,228.3,110.8,227.9
	z"/>
<path class="st9" d="M275.4,147.2c0.4,0.2,0.9,0.5,0.9,1c-0.2,6.2-4.5,11.8-11.3,12c-3,0.1-5.9-0.2-8.7-1c-0.2,0.3-0.3,0.3-0.5,0
	c-0.5-0.3-1.1-0.6-1.8-0.6c-4.5-0.3-7.7-2.5-9.7-6.6c-0.3-0.6-0.7-1.3-1-1.9c0.3-1.7-0.2-3.6,0.9-5.2c0.5-0.6,0.8-1.3,1.6-1.7
	c0.8-0.2,1.2,0.4,1.6,0.9c4.1,5.4,9.8,6.1,15.9,5.8c3.6-0.2,7.1-1,10.4-2.5C274.1,147.3,274.7,147,275.4,147.2z"/>
<path class="st1" d="M351.8,238.5c-0.8,1.9-2.3,3.2-3.3,4.8c-0.3,0.4-0.9,0.3-1.3,0.4c-2.7,0.2-5.4-0.3-8.1,0.3
	c-0.2,0-0.5,0-0.7-0.2c-1.6-1.6-3.9-1.7-5.7-2.9c-2.2-1.5-4.8-2-7.5-1.1c-1.9,0.6-1.9,0.4-2.9-1.3c-0.4-0.7-0.8-1.4-1.2-2
	c0.5-0.5,0.7-1.2,0.9-1.9c0.4-2.2,3.6-3.9,5.6-3.1c0.5,0.2,0.7,0.6,0.6,1.1c-0.2,0.9,0.3,1.6,1.2,1.8c0.8,0.2,1.4-0.3,1.8-0.9
	c0.3-0.4,0.6-0.8,0.9-1.1c1.4-2.1,3.9-2.8,6.1-1.9c0.7,0.3,1.1,0.7,0.7,1.5c-0.1,0.1-0.1,0.3-0.2,0.4c-0.4,0.9-0.2,1.6,0.6,2.1
	c0.9,0.6,1.6,0.3,2.3-0.4c1-1,2.3-1.6,3.5-2.5c2.3-1.8,7.2,0.1,8.7,2.9c0.4,0.7,0.1,1-0.7,1.4C351.3,236.5,351.3,236.7,351.8,238.5z
	"/>
<path class="st8" d="M194.9,193.8c-2.6,0-5-0.3-7.4-1.3c-3.1-1.2-5.3-3.4-7.4-5.8c-3.2-3.9-5.3-8.5-6.5-13.3c-0.7-2.6-1.3-5.2-1.2-8
	c0.1-1.9-0.1-3.8-0.4-5.7c-0.4-2.9,0.1-5.8,0.8-8.7c1.7-0.4,2-0.4,2.6,1c0.6,1.6,1.1,3.4,1.2,5.1c0.3,4.9,1.3,9.7,2.1,14.4
	c1.1,5.8,4,10.6,8.8,14.1c2.7,2,5.8,3.3,9.3,3.3c1.4,0,2.8,0.3,4.2,0.5c0,1.3-0.8,2-1.4,2.9C197.9,194.5,197.2,194.7,194.9,193.8z"
	/>
<path class="st12" d="M244.7,168.2c-0.5,0.9-1,1.8,0.4,2.5c1.7,0.8,2.4,2.5,3.4,3.9c0.6,0.9,1.4,1.7,2.4,1.8c1.6,0.1,2.8,1,4,1.9
	c1.3,1,2.5,1.3,4.2,0.8c3.9-1.2,7.9-1,11.3,1c2.6,1.5,4.4,0.9,6.6,0c1.1-0.4,2.3-0.8,3.5-0.7c1.1,0.1,1.6-0.3,1.6-1.5
	c0-0.4,0.3-0.7,0.7-0.8c-0.5,1.2-0.5,2,0.8,2.8c2.3,1.4,2.6,3.8,1,6.1c-2,2.7-4.6,3.5-8.1,2.4c0.1-0.2,0.1-0.5,0.2-0.7
	c0.6-0.8,0.7-1.6-0.2-2.3c-0.8-0.6-1.5-0.1-2.1,0.4c-0.2,0.2-0.5,0.4-0.7,0.7c-2.3,2.3-3.8,2.6-6.8,1.2c-0.6-0.3-1.3-0.7-1.9-1.1
	c-0.8-0.5-1.2-1.1-0.6-2c0.1-0.2,0.2-0.4,0.3-0.6c0.2-0.6,0.2-1.3-0.4-1.7c-0.7-0.4-1.2-0.2-1.7,0.3c-1.7,1.7-4,1.9-6.2,2.2
	c-0.5,0.1-1,0-1.4,0c-1.9-0.1-2.2-0.3-2.7-2.1c-0.8-2.6-0.8-2.7-3.5-2.2c-1.2,0.2-2.3,0.1-3-0.9c-0.6-0.9-0.4-3.1,0.4-3.9
	c0.5-0.5,0.9-0.9,0.5-1.7c-0.3-0.7-0.9-0.9-1.6-0.9c-0.7,0-1.4,0-2.2,0c-0.7,0-1.4-0.2-2-0.7c-1-0.9-0.9-1.4,0.2-2.1
	C242.4,169.7,243.6,169,244.7,168.2z"/>
<path class="st10" d="M160.3,252.3c-2.4-2.7-3.7-5.6-2.6-9.4c0.6-1.8,1.8-2.9,3.1-4.1c4-3.6,8.9-4.3,14-4.6c1.6-0.1,3.2,0,4.7,0
	c0.5,0.9-0.2,1.4-0.5,2c-0.4,0.8-0.7,1.6-1.2,2.3c-2.3,3.1-1.7,6.1,0.2,9c-3.1,1.2-6.4,2-9.7,2.4
	C165.5,250.4,162.9,251.2,160.3,252.3z"/>
<path class="st3" d="M307.4,133.2c0.6,0.2,0.8,0.8,1.1,1.2c4.7,7.4,8.7,15.2,11.7,23.5c0.7,1.9,0.7,1.9-1,2.8
	c-2.1,1.2-4.4,2.3-5.3,4.9c-0.2,0.6-0.5,0.7-1.1,0.6c-0.5-0.1-0.9-0.3-1.4-0.2c-0.9,0.1-1.3-0.3-1.5-1.1c-1.1-4-2.6-7.9-3-12
	c-0.6-6.3-0.5-12.6,0.3-18.9C307.1,133.7,307,133.4,307.4,133.2z"/>
<path class="st7" d="M270.7,199.6c-1.4,0-2.8,0.6-4.2,0.5c-2-0.1-3.7-0.5-5.4-1.6c-1.3-0.9-2.4-1.2-4.1-0.6
	c-3.5,1.2-9.2-0.9-10.9-4.5c-0.1-0.3-0.3-0.6-0.3-0.9c0.1-1.3-0.7-1.8-1.8-2.1c-1.7-0.4-2.7-1.6-3.4-3.1c-0.6-1.3-1.4-2.5-2.1-3.7
	c0.1-1.6,0.6-3.1,0.5-4.7c-0.2-0.2-0.2-0.4,0-0.6c1,0,1.4,1,2,1.5c4.3,3.4,7.9,7.9,13.4,9.8c0.8,0.3,1.5,0.7,1.9,1.4
	c1.3,2,3.2,2.5,5.5,2.7c3.7,0.3,7.1-0.6,10.3-2.4c1.4-0.9,2.7-1.4,4.3-0.1c1.4,1.1,3.2,0.6,4.8,0.6c-1.4,0.4-2.3,1.2-3.1,2.6
	c-1,1.7-2.7,2.9-4.2,4.2c-1.4-1.8-1.8-1.8-2.7,0.1C271.1,199,270.9,199.3,270.7,199.6z"/>
<path class="st11" d="M138.6,267.7c0,2.8,0.1,5.5-0.1,8.3c-0.1,1.9,0.4,3.6,1.7,5c0.3,1-0.3,1.7-0.9,2.3c-2.7,3.2-6,5.6-10.2,6.5
	c-3.7,0.8-4.9,0.3-6.9-2.9c-0.3-0.5-0.5-1-0.8-1.5c-0.2-6.5,0-13,0.5-19.5c0.1-1.1-0.4-2.5,0.4-3.2c0.8-0.7,1.9,0.2,3,0.2
	c2.7,0,5.4,0,8.1,0.1c0,0.6-0.5,0.9-0.9,0.9c-2.3,0.1-2.6,1.6-2.7,3.4c-0.1,4-0.9,7.9-0.4,11.9c0.4,3.4,0.6,3.5,3.5,1.9
	c0.4-0.2,0.7-0.4,1-0.6c2.8-1.3,4.1-3.3,3.6-6.5c-0.2-1.4-0.1-2.9,0-4.3C137.6,269,137.4,268,138.6,267.7z"/>
<path class="st6" d="M213,231.6c0.4,0.5,0.9,0.6,1.5,0.5c3-0.6,6-1.2,9.1-1.5c1-0.1,2-0.5,2.9-0.9c2.7-1.2,5.6-1.7,8.5-1.9
	c1.6-0.1,3.1-0.4,4.6-0.9c3.3-1.1,6.8-1.5,10-2.8c1.7-0.7,3.2-1.8,4.8-2.6c0.9-0.4,1.7-1,2.7-0.8c-1.1,1.8-2.9,2.9-4.6,4.1
	c-5.3,3.8-11,6.7-17.1,8.9c-5.6,1.9-11.4,3.5-17.2,4.9c-0.9,0.2-2,0.4-2.7,1c-1.9,1.5-3.6,0.3-5.4-0.3c-0.7-0.2-0.7-0.8-0.4-1.4
	C211,235.8,212,233.7,213,231.6z"/>
<path class="st5" d="M184.9,253.2c2.8,1,5.6,1.7,8.6,1.6c3.3-0.1,6.4-0.8,9.1-2.9c1.9,0,3.1,0.9,2.8,2.7c-0.4,2.7,0.2,4.9,1.9,7
	c0.3,0.4,0.4,0.9,0,1.3c-4.7,1.3-9.5,0.7-14.3,0.4c-4.3-0.3-8.6-1-12.8-1.7c-2.2-0.3-4.4-0.9-6.5-1.6c-0.6-0.4-0.8-1-0.1-1.2
	c3.7-1.6,7.2-3.5,10.6-5.7C184.4,253,184.7,253.2,184.9,253.2z"/>
<path class="st7" d="M54.2,259.5c3.7,0.2,7.4-0.5,10.7-2.1c3.4-1.6,6.9-2.5,10.5-3.2c4.9-1,9.9-1.7,14.9-1.5c1,0,1.6-0.5,2.4-0.9
	c-0.1,2.2-0.3,4.4-0.4,6.7c0.1,0.8-0.5,1.1-1,1c-3.7-0.2-7.4,0.8-11.1,0.5c-7.2-0.1-14.3,1.2-21.2,3.1c-3.2,0.9-6.4,1.5-9.7,0.7
	c-1-0.2-2-0.4-2.6-1.4c1.8-1.5,4.1-2.3,6.2-3.2C53.2,259.1,53.7,259.1,54.2,259.5z"/>
<path class="st16" d="M116.6,249c-0.6-0.3-1.1-0.6-1.7-0.8c-2-0.7-1.9-0.7-2.1-2.7c-0.5-3.4,1.3-6.2,2.3-9.1
	c0.6-1.8,1.2-3.6,1.1-5.6c0.1-0.1,0.2-0.1,0.4-0.1c0.5-0.3,1.1-0.1,1.5-0.3c1.3-0.4,2.6-0.7,4-1.1c0.1,1-0.2,1.8-0.4,2.6
	c-0.3,1.1,0.2,1.7,1.2,1.9c0.8,0.2,1.6,0.2,2.4,0.3c5,0.2,7.6,3.1,8,7.7c0.5,5.5,0.4,11,0.2,16.5c-0.1,2.4-0.2,2.4-2.5,2.3
	c-1.8-0.1-1.7-0.1-1.6-1.8c0.1-1.7,0.1-3.3,0.2-5c0-1.5,0-3,0.2-4.5c0.3-2.1,0.1-4.2-0.4-6.2c-1-4.5-4.7-5.7-8.6-5
	c-1,0.2-1.4,1-1.7,1.8c-0.8,2.3-1.4,4.6-1.9,6.9C117,247.5,116.9,248.3,116.6,249z"/>
<path class="st7" d="M74.3,241.3c2.5-0.1,4.9,0.2,7.1,1.6c2.8,1.7,2.8,3.8,0,5.6c0.3-2.4-0.1-3-2.4-2.8c-4,0.3-7.9,1-11.8,1.6
	c-4.5,0.8-8.7,2.4-13.2,3.3c-2.5,0.5-5,0.8-7.5,1.1c-1.7,0.2-3.3,0.1-5-0.2c-1.5-0.3-2.6-1-3.2-2.5c2.4-1.9,5-3.4,8.2-3.6
	c0.6,0,1.1-0.1,1.7-0.3c8.1-2.8,16.6-2.9,25-3.9C73.6,241.1,74,241.1,74.3,241.3z"/>
<path class="st8" d="M94,233.2c-2.1-0.7-3.9-2-5.6-3.4c-2.8-2.3-5.6-4.4-8.7-6.2c-0.6-0.6-1.2-1.1-2-1.4c-2.4-0.8-4.9-1.5-7.3-2.2
	c-7.1-2.2-13.9-0.1-20.7,1.5c-1,0.2-2.1,0.9-3.2,0.2c-0.3-2,0.2-2.9,2.3-3.8c2.2-0.9,4.5-1.5,6.9-1.9c6.3-1,12.6-0.8,18.8,0.1
	c3.9,0.6,7.4,2.5,10.8,4.4c1.9,1,3.7,2.1,5.6,3.2c0.8,0.4,1.4,1,2.1,1.6c0.8,0.7,1.2,1.6,1.1,2.7C94,229.6,94.1,231.4,94,233.2z"/>
<path class="st6" d="M80,260.1c2.4-0.1,4.7-1,7.2-1.1c0.8,0,1.5,0,2.3,0c0.9,0.1,1.9,0.4,2.7-0.5c0.6,0.9,1.4,1.3,2.5,1.5
	c5.7,1.3,11.5,1.7,17.2,2.6c2.3,0.4,3.3-0.4,4-2.7c0.8-2.6,1.4-5.2,2.6-7.6c2.8,0.7,5.5-0.1,8.1-1c0,0.5,0,1,0.1,1.4
	c0,0.9-0.3,1.4-1.3,1.6c-1.8,0.3-3.5,1-4.9,2.3c-0.9,0.9-1.4,1.8-1.5,3.1c-0.3,3.7-0.4,7.5-0.5,11.2c0,0.6,0.3,1.4-0.3,1.8
	c-0.7,0.4-1.1-0.3-1.6-0.7c-4-2.8-8.4-5-13-6.5c-4.6-1.5-9.3-2.7-14.1-3.7C86.2,261.4,83.1,260.7,80,260.1z"/>
<path class="st7" d="M194.9,193.8c1.8,0.2,3.4-0.3,4.8-1.5c-1.1,4.1-3.2,7.8-5.2,11.5c-5.9,7.8-13,14.5-20.7,20.6
	c-0.7,0.6-1.4,1.3-2.5,1.1c-1.6-1.6-3.3-3.1-4.7-4.9c4.5-1.6,8.4-4,12.1-7c1.6-1.3,3.2-2.7,4.6-4.1
	C187.8,204.8,191.7,199.6,194.9,193.8z"/>
<path class="st7" d="M310.6,212.1c-1.4,0-2.8-0.3-4.2-0.8c-2.7-1-5.4-1.8-8.2-2.5c-0.8-0.2-1.6-0.4-2.2-0.9
	c-2.1-1.7-4.6-2.4-6.9-3.7c-0.4-0.2-0.9-0.4-1.2-0.7c-2.3-1.7-2.9-4.1-2-7.2c0.8-2.8,2.4-5.2,4.8-7c0.7-0.5,1.1-1.1,1.7-1.6
	c-0.2,1-0.3,1.9-0.5,2.9c-2.1,5.9,1.6,12.4,8.2,13.7c4.6,0.9,9.2,2.2,13.9,1.1c0.9-0.2,2.1-0.7,2.8,0.6c0.1,1.1,0.7,2.2,0.5,3.4
	c-0.1,0.2-0.2,0.5-0.4,0.6C314.5,210.1,312.6,211.3,310.6,212.1z"/>
<path class="st17" d="M219.5,138.5c1.3-1.9,1.8-3.6,0.8-5.4c-1.7-3.2-5.7-3.8-8.6-1.3c-1.9,1.7-2,1.6-3.2-0.6c-1-2-1.4-4.2-1.6-6.5
	c-0.1-1,0.3-1.4,1.4-1.5c2.4-0.1,4.8,0.1,7.1,0.9c4,1.4,7.8,3.3,11.2,5.8c1.8,1.3,3,3.1,3.7,5.2c0.3,1,0.1,1.6-1,2
	C226.2,138.1,223.1,139,219.5,138.5z"/>
<path class="st11" d="M184.9,253.2c-0.2,0.1-0.5,0-0.7,0.2c-3,2.7-6.5,4.3-10.3,5.7c-0.6,0.2-0.3,0.6-0.2,0.9
	c-2.7-0.5-5.2-1.5-7.4-3.1c-2.1-1.5-4.2-2.8-6-4.6c0.1-1,0.8-1.1,1.6-1.4c3.4-1.3,7.1-1.5,10.6-2.3c1.8-0.5,3.6-1.3,5.5-1
	C179.9,249.9,182.4,251.5,184.9,253.2z"/>
<path class="st5" d="M138.6,267.7c-0.6,0.7-0.4,1.5-0.5,2.3c0,2.4-0.1,4.8,0,7.2c0,1.3-0.5,2-1.6,2.6c-1.9,1.1-3.8,2.3-5.8,3.2
	c-0.4,0.2-0.8,0.6-1.5,0.3c-0.7-4.1-1-8.2-0.4-12.4c0.1-1,0.1-2.1,0.2-3.1c0-0.9,0.1-1.7,0.3-2.6c0.2-1.2,0.7-1.8,2-1.7
	c0.7,0.1,1.5,0.2,2-0.4c1.9-0.2,3.8-0.2,5.6-1.4C139.4,263.9,138.8,265.8,138.6,267.7z"/>
<path class="st6" d="M171.2,225.6c3.6-2.3,6.6-5.4,9.9-8.2c2.2-1.9,4.6-3.7,6.4-6.1c1.8-2.3,3.7-4.6,5.8-6.6
	c0.3-0.3,0.8-0.6,1.1-0.8c-0.8,3-2.3,5.7-3.6,8.6c-2.7,5.8-6.1,11.2-8.5,17.1c-0.4,1-1,1.4-2,1.2c-0.2,0-0.3-0.1-0.5-0.1
	C175.7,231,173.5,228.2,171.2,225.6z"/>
<path class="st18" d="M74.3,241.3c-2.6,1.2-5.4,1.5-8.2,1.4c-4.5-0.1-8.9,0.5-13.2,2c-2,0.7-4.2,1.1-6.3,1.3
	c-2.1,0.2-3.9,0.8-5.6,1.9c-0.9,0.6-1.7,1.2-2.8,1.1c-0.6-1.8,0.3-3.1,1.5-4.2c2.1-1.8,4.4-3.2,6.9-4.2c3.2-1.2,6.6-1.9,10-2.2
	c5-0.4,10-0.7,15-0.6c0.2,0,0.5,0.1,0.7,0.1C74.8,238.4,75.2,239,74.3,241.3z"/>
<path class="st12" d="M43.6,183.6c0.1,0.5,0.1,1.1,0.2,1.7c1.9-0.8,3.8-0.8,5.6-0.3c0.8,0.2,1.5,0.2,2.2-0.3
	c2.6-1.9,5.2-1.7,7.8-0.1c1,0.6,1.6,0.6,2.5,0c1.1-0.7,2.3-1.1,3.5-1.5c1.1-0.4,2-0.1,2.9,0.5c0.6,0.4,1.1,0.8,1.9,0.8
	c3.6-0.1,6.1,1.8,8.3,4.4c0.1,0.2,0.4,0.3,0.6,0.4c-1.5,0.6-3,0.9-4.3-0.6c-0.5-0.6-1-0.2-1.4,0.2c-0.9,1.1-2.2,1.2-3.5,1.1
	c-1.5-0.1-2.9-0.4-3.3-2.2c-0.2-0.7-0.6-1.1-1.4-1.1c-0.8,0.1-1.2,0.6-1.2,1.3c-0.1,1.7-1.3,2.2-2.5,2.8c-2,1-4.1,1-6.3,0.3
	c-0.9-0.3-1.5-0.8-1.9-1.7c-0.9-1.7-1-1.8-2.6-0.9c-2.6,1.4-5.3,0.8-6.9-1.5C43.1,185.9,42.8,184.8,43.6,183.6z"/>
<path class="st8" d="M167.1,185.2c0.5,0.3,1,0.7,0.8,1.3c-0.2,0.7-0.9,0.5-1.4,0.6c-2.5,0.1-5.6-2.1-6.6-4.7
	c-0.9-2.4-1.1-4.9-1.5-7.4c-0.6-3.8-0.6-7.7-1.4-11.5c-0.2-1.1-0.1-2.2-0.2-3.3c0.5-1.2,1.5-1.8,2.3-2.7c0.9-1,2-1.3,3.2-0.7
	c1.1,0.5,1.9,1.8,1.7,3.2c-0.7,4.6-0.6,9.2-0.5,13.8c0,3.4,0.7,6.8,2,10C165.8,184.5,165.9,185.4,167.1,185.2z"/>
<path class="st19" d="M310.6,212.1c1.6-1.7,3.4-2.7,5.8-2.6c0.3,0,0.6-0.2,0.9-0.3c1.2,4.7,1.8,9.5,2,14.3c0.1,2.1,0,4.3,0,6.4
	c0,1-0.3,1.5-1.3,1.4c-1.7-0.1-3.1,0.6-4.5,1.3c-0.7-0.9-0.9-1.9-0.8-2.9c0.1-3.1-0.7-6-1.6-8.8C310,218,309.8,215.1,310.6,212.1z"
	/>
<path class="st6" d="M150.6,258.1c-0.6,5.3-1.2,10.6-1.8,15.9c-0.2,1.6-0.4,3.2-0.6,4.7c-0.2,1.1-0.7,1.7-1.9,1.5
	c-0.8-0.2-1.6-0.3-2.3-0.5c-1.6-0.5-2.4-1.5-2.4-3.2c0.1-5.1-0.4-10.2,0.4-15.3c0.1-0.9,0.1-1.7,0.1-2.6
	C144.9,258,147.7,256.8,150.6,258.1z"/>
<path class="st11" d="M207.3,262.9c-0.1-1.2-1.1-1.9-1.7-2.8c-0.9-1.3-1.3-2.6-0.8-4.2c0.6-2.2,0.1-2.9-2.2-4c1.6-2.6,3-5.4,4.3-8.2
	c0.8-1.7,1.2-1.7,2.7-0.7c0.6,0.4,0.6,0.7,0.4,1.4c-1.5,4.1-0.4,6.4,3.6,8.2c1.7,0.7,3.5,0.8,5.2,1.4c0.1,0.9-0.6,1.2-0.9,1.7
	c-0.7,1-1.4,2-1.3,3.3c0.1,1.7-0.8,2.2-2.2,2.6C212,262.2,209.7,262.9,207.3,262.9z"/>
<path class="st7" d="M75.8,229.8c1.2,0.8,2.6,1.2,3.6,2.4c0.8,0.9,1.3,1.7,1.2,2.9c-1.3-0.7-2.6-1-4.1-1c-7.7-0.1-15.4,0.3-23.1,1
	c-3.2,0.3-6.4,0.2-9.6,0c-2.5-0.1-3.5-1.6-3.1-3.9c3.1,0,6.1-1.2,9.2-1.3c7.8-0.4,15.6-0.5,23.4-0.8
	C74.2,229.1,75.1,229.1,75.8,229.8z"/>
<path class="st20" d="M75.8,229.8c-2.4,0-4.8-0.2-7.2,0.1c-5.4,0.6-10.9,0.2-16.3,0.5c-3.3,0.2-6.7,0.4-9.9,1.5
	c-0.9,0.3-1.6,0.4-1.8-0.7c1.4-3.4,4.4-4.8,7.7-5.1c8.6-0.8,17.3-0.8,25.9,0c0.2,0.3,0.5,0.4,0.8,0.4c2.3,0.7,2.4,1.1,0.9,2.9
	C75.9,229.5,75.9,229.6,75.8,229.8z"/>
<path class="st21" d="M150.7,177.5c-1.1,0-2.1,0-3.2,0c-5-0.1-10,0.7-15,1.2c-1.7,0.2-3.5,0.4-5.2,0.7c-0.8,0.1-1.4,0.1-1.8-0.7
	c-0.8-1.6-2-2.9-3-4.2c0.2-0.9,0.9-0.7,1.4-0.8c8.3-0.8,16.7-1.5,25-2.3c1.8-0.2,1.8-0.1,1.8,1.8C150.7,174.6,150.7,176,150.7,177.5
	z"/>
<path class="st6" d="M316.7,205.8c-1.3-0.4-2.5-0.1-3.7,0.1c-2.8,0.6-5.5,0.5-8.2-0.2c-0.6-0.2-1.2-0.4-1.9-0.4
	c-5.3-0.1-8.9-3-11.6-7.2c-1.5-2.2-1.1-6,0.6-7.7c0.8,5,4.1,8.2,9.1,8.9c1.6,0.2,3.2-0.2,4.7-0.6c0.8-0.2,1.3-0.1,2,0.4
	c1.8,1.6,4,2.1,6.4,2.3c1.9,0.1,1.9,0.1,2.3,2C316.4,204.2,316.5,205,316.7,205.8z"/>
<path class="st10" d="M121.4,285.5c0.8,0.5,1.4,1.2,1.9,2.1c1.1,1.9,2.3,2.3,4.5,1.9c5.5-0.8,9.4-3.9,12.3-8.5
	c0.8,0.8,1.7,1.4,2.8,1.7c0.8,0.2,1,0.8,0.7,1.5c-1.4,3.5-2.9,7.1-4.3,10.6c-0.3,0.6-0.7,0.8-1.3,0.7c-3.5-0.5-7.1-0.6-10.6-1.7
	C123.9,292.8,121,289.7,121.4,285.5z"/>
<path class="st6" d="M207.8,120.3c2.8-4.2,9.7-5,14.3-3.3c6.2,2.3,10,7.9,9.1,14.3C224.3,125.7,216.7,121.7,207.8,120.3z"/>
<path class="st18" d="M54.2,259.5c-1.4,0-2.4,0.8-3.5,1.3c-1.4,0.6-2.6,1.6-4.2,1.7c0,0,0,0,0,0c-0.2-0.5-0.2-1.1,0-1.6
	c1-2.8,3.4-4.1,5.8-5.2c8.2-4,16.7-6.4,25.8-6.7c0.2,0,0.5,0,0.7,0.1c0.6,0.1,1.6-0.3,1.7,0.8c0.2,1-0.5,1.5-1.3,1.8
	c-1.8,0.7-3.7,1.6-5.6,2.1c-3.1,0.8-6.1,1.6-9.3,2.2C60.9,256.5,57.3,257.6,54.2,259.5z"/>
<path class="st22" d="M253.4,249c1.1,1.7,1.1,2.2,0,3.6c-0.8,1-2,1.7-3.2,2c-5.5,1.7-11.1,2.9-16.7,3.8c-3,0.5-6.1,1.4-9.2,1.1
	c-1.5-0.1-3.2,0-4-1.9c0.5-1.3,1.8-1.9,2.6-3.1c0.4-0.6,1.1-0.5,1.8-0.5c2.9-0.1,5.7-0.2,8.6-0.3c6.3-0.3,12.4-2,18.4-3.7
	C252.3,249.9,252.9,249.4,253.4,249z"/>
<path class="st23" d="M324.6,196.3c2.7,0.6,3.2,2.2,3.2,4.7c-0.1,8.3-0.9,16.6-2.5,24.8c-0.1,0.5-0.3,1.1-0.4,1.6
	c-0.1,0.6-0.3,1.2-0.9,1.1c-0.8-0.1-0.5-0.9-0.5-1.4c0.2-8.4-1.4-16.5-3.2-24.7c-0.3-1.4-0.3-2.4,1.2-3.1
	C322.8,198.7,323.7,197.4,324.6,196.3z"/>
<path class="st24" d="M223.7,168.8c3.1,0.9,6.2,1.8,8.5,4.1c4.6,4.6,4.3,10.7,0.3,14.7c-0.2,0.2-0.4,0.2-0.8,0.4
	c0-5.2-3.1-8.2-7.1-10.7c-1.4-0.8-2.9-1.4-4.4-1.8c-0.9-2.3,0.4-4.3,1.1-6.3C221.8,168.2,222.9,168.6,223.7,168.8z"/>
<path class="st6" d="M272.1,191.4c-1,0.7-2,1.5-3.1,2.2c-0.6,0.4-1.3,0.7-2,0.6c-2.4,0-4.7,0-7.1,0c-1.5,0-2.6-0.8-3.3-2
	c-0.8-1.3-2-1.9-3.3-2.5c-2.3-1-4.6-2-6.2-4.2c-0.8-1.1-2-2-3.3-2.7c-2-1-3.2-2.8-4.6-4.4c-0.4-0.2-0.2-0.7-0.5-1
	c0-0.2,0-0.3-0.1-0.5c0.4-1.1-0.4-1.7-1.1-2.4c-0.6-0.6-0.9-1.3-1.2-2c1.6-1.1,1.7-1.1,2.3,0.3c0.6,1.3,1.5,2.2,2.8,2.7
	c2,1,1.2,3.2,1.9,4.8c1,2.2,2.6,3.6,5.2,3.3c0.6-0.1,1,0.2,1.4,0.8c2,3.2,4.3,4.1,8,3.3c0.9-0.2,1.7-0.4,2.5-0.6
	c0.7-0.2,1.4-0.2,2,0.5C264.9,190.6,268.3,191.6,272.1,191.4z"/>
<path class="st8" d="M307.1,275.9c-1-1.2,0-2.3,0.2-3.4c0.6-2.7,1.1-5.4,2.1-8c2.1-5.3,2.8-10.7,2.5-16.4c-0.1-1-0.4-2.1,0.4-3
	c1.4,0.8,2.5,2,4.2,2.3c1.1,0.2,1.3,0.7,1.1,1.7c-0.3,1.6-0.6,3.1-1,4.7c-1.7,7.4-4.4,14.3-8.6,20.7
	C307.8,275,307.5,275.4,307.1,275.9z"/>
<path class="st8" d="M136.4,242.3c-0.1-2.1-0.1-2.1,1.7-1.8c3.1,0.6,6.2,1.4,9.4,1.6c2.1,0.1,4.1,0.1,6.6-0.5
	c-0.8,2.5-0.4,4.8-1.5,6.9c-0.5,1-1.5,1.2-2.4,1.1c-4.3-0.4-8.4-1.4-12.6-2.3c-0.3-0.1-0.6-0.3-0.8-0.5
	C136.2,245.3,136.8,243.7,136.4,242.3z"/>
<path class="st25" d="M126.7,251.4c-0.5,1-1,1.7-2.3,1.5c-1.5-0.2-3,0.6-4.5,0.5c-0.7-0.1-1.2-0.2-1.3-1c0.6-2.5,1.2-4.9,1.8-7.4
	c0.2-0.9,0.4-1.7,0.9-2.4c0.5-0.9,0.6-2,2.1-1.8c1.4,0.2,2.5,0.7,3,2c0.7,1.7,0.9,3.5,0.7,5.4C126.9,249.2,126.8,250.3,126.7,251.4z
	"/>
<path class="st26" d="M150.6,258.1c-2.4-0.2-4.6,0.4-6.9,0.7c-0.6,0.1-1.1,0-1.5-0.2c0-0.8,0.1-1.6-0.2-2.4c-0.7-2-2-3-4.1-2.9
	c-1.2,0-1.6-0.5-1.4-1.6c0.1-0.8-0.1-1.6,0.3-2.3c0.8,2.4,2.6,2.6,4.8,2.2c3.5-0.7,7.1-0.4,10.6-1.1
	C151.6,253,151.1,255.6,150.6,258.1z"/>
<path class="st27" d="M46.5,221.6c4.7-1.5,9.5-2.4,14.3-3.2c1.4-0.2,2.9-0.3,4.3-0.1c3.5,0.4,7,1.2,10.3,2.5
	c0.8,0.3,1.7,0.6,2.2,1.3c-7.1-0.8-14.2-0.7-21.3-0.5c-2.2,0-4.3,0.2-6.4,0.8C48.9,222.8,47.4,223.4,46.5,221.6z"/>
<path class="st28" d="M209.6,144.2c0.1,2.2-0.7,4-2.7,5.2c-1.4,0.8-2.7,0.7-3.9-0.4c-1.6-1.5-2.4-3.3-2.5-5.5
	c-0.1-1.9,0.7-2.8,2.6-2.9c1.9,0,3.8,0.4,5.6,0.9C209.6,141.8,209.7,142.1,209.6,144.2z"/>
<path class="st16" d="M101.7,229.9c0.1,2.7-0.8,5.3-1.7,7.8c-0.2,0.5-0.6,1.1-0.5,1.5c0.4,2.3-1,4.3-1.1,6.5c-0.1,1-0.2,1-1.8,1.5
	c-0.1-1.2-0.1-2.4-0.2-3.5c-0.3-5.3,0.5-10.6,0.4-16.2C98.6,228.1,100.2,228.8,101.7,229.9z"/>
<path class="st4" d="M152.1,250.4c-0.7,1.2-2.1,1.4-3.1,1.3c-2.6-0.3-5,0.2-7.5,0.6c-0.5,0.1-1,0.1-1.4,0.1c-3,0.1-3,0.1-3.3-3
	c0-0.4,0-0.8,0-1.2c-0.2-0.6-0.4-1.1,0.2-1.6c4.2,0.8,8.3,1.6,12.5,2.4c1.1,0.2,2.2,0.2,3.2-0.4
	C152.4,249.2,152.2,249.8,152.1,250.4z"/>
<path class="st29" d="M256.7,263.8c0.6,1.4,0.3,2.1-1.2,2.4c-5.5,1.1-10.9,3-16.4,3.9c-1.6,0.3-3.1,0.9-4.6,1.3
	c-2.6,0.7-4-0.2-4.5-2.7C239.1,268.5,247.9,266.4,256.7,263.8z"/>
<path class="st30" d="M219.8,175.5c-0.6,0-1.3,0-1.9-0.1c-2.7-0.2-5.2,0.2-7.5,1.6c-0.4,0.2-0.8,0.5-1.3,0.7c-1,0.4-1.3,0.2-1.3-0.8
	c0-1.8,0.5-3.5,1.8-4.8c1.8-1.7,3.9-2.9,6.5-3.2c0.9,1,0.6,2.2,0.4,3.4c-0.3,1.4,0.1,2.1,1.6,2.2
	C218.7,174.5,219.7,174.4,219.8,175.5z"/>
<path class="st31" d="M219.8,175.5c-0.7-0.7-1.7-0.5-2.5-0.4c-1.7,0.1-2.1-0.3-1.7-2.2c0.3-1.3,0.4-2.6,0.4-4
	c1.8-0.1,3.6-0.6,5.5-0.5c0.8,0,1.6-0.2,2.3,0.4c-1.2,0-2,0.3-2.2,1.7c-0.2,1.7-1.1,3.3-1.2,5C220.1,175.5,220,175.5,219.8,175.5z"
	/>
<path class="st32" d="M134.8,149.7c0.9,0,1.5-0.9,2.4-1c1.6-0.2,3.1-0.7,4.6,0.1c0.4,0.2,0.8,0,1.1-0.1c-0.6,2.3-3.8,4.8-6,4.8
	c-0.6,0-1-0.2-1-0.8C135.9,151.6,135.1,150.7,134.8,149.7z"/>
<path class="st33" d="M117.7,222.2c0-1.4,0.4-1.7,2.2-1.5c0.1,0,0.2,0,0.2,0c1,0.4,2.6-0.1,2.7,1.7c0.1,1.4-1.2,3.7-2.5,4.1
	c-0.3,0.1-0.7,0.1-0.9-0.2C118.7,225.2,117.7,224.1,117.7,222.2z"/>
<path class="st34" d="M147.1,168.8c0.6-3.7,2.2-5.7,5-6.2c-0.4,1.9-0.7,3.8-1,5.6c-0.1,0.5-0.5,0.6-0.9,0.6
	C149.2,168.8,148.2,168.8,147.1,168.8z"/>
<path class="st35" d="M101.1,222c0,0.2-0.1,0.6-0.2,1c-0.2,0.8-0.1,2-1.2,2c-1.1,0-1.8-0.9-2.3-1.9c-0.4-0.9-0.3-1.9,0.6-2.5
	c0.1-0.1,0.3-0.2,0.4-0.3C100.3,219.3,101.1,219.7,101.1,222z"/>
<path class="st36" d="M251.2,161.6c-1.7,1-1.7,1-0.5,2.3c0.6,0.6,1,1.4,1.4,2.1c-0.5,0.5-1.3,0.5-1.3,0c-0.2-1.6-2.8-1.6-2.2-3.5
	C249,161,249.3,160.9,251.2,161.6z"/>
<path class="st37" d="M125.6,260c-1-0.1-2.1-0.1-2.3-1c-0.2-0.9,0.9-1.2,1.6-1.6c0.2-0.1,0.4-0.1,0.7-0.2
	C126.1,258.2,125.8,259.1,125.6,260z"/>
<path class="st38" d="M136.4,258.9c0-2.3,0.1-2.4,1.4-2.3c0.4,0,0.8,0,1,0.5c0.2,0.4-0.1,0.8-0.4,1c-0.2,0.2-0.5,0.4-0.8,0.5
	C137.3,258.7,137,259,136.4,258.9z"/>
<path class="st39" d="M243.4,180.4c-0.4-0.2-0.9-0.4-0.8-0.7c0.4-1.6-0.8-2.7-1.2-4c1.9,0.3,1.9,0.3,1.9,1.9
	C243.3,178.5,243.3,179.4,243.4,180.4z"/>
<path class="st36" d="M255.8,166c0.8-0.8,1.8-1.3,2.9-1.5c-0.2,0.3-0.4,0.6-0.6,1C257.5,166.7,256.8,166.9,255.8,166z"/>
<path class="st26" d="M136.9,246.6c-0.1,0.5-0.1,1.1-0.2,1.6c-0.5-1.9-0.4-3.9-0.3-5.9C137.2,243.6,136.5,245.1,136.9,246.6z"/>
<path class="st36" d="M258.7,164.5c0.3-1.7,1.6-1.9,3-1.9C260.7,163.3,259.7,163.9,258.7,164.5z"/>
<path class="st39" d="M237.5,174.6c1.8,0.8,1.8,0.9,1.1,2.4C238.2,176.2,237.8,175.4,237.5,174.6z"/>
<path class="st11" d="M171.8,320.1c1.1,0,2.3-0.4,3.4,0.4C174,320.4,172.8,320.9,171.8,320.1z"/>
<path class="st36" d="M255.3,161.6c-1.1,1-2.2,0.7-3.3,0.2C253.1,161.7,254.2,161.9,255.3,161.6z"/>
<path class="st36" d="M252.5,165.9c0.9-0.6,1.9-0.6,2.8,0C254.4,165.9,253.4,165.9,252.5,165.9z"/>
<path class="st36" d="M265.3,163.1c0.7,0,1.3,0,2-0.1C266.5,164.3,266.5,164.3,265.3,163.1z"/>
<path class="st36" d="M255.7,159.3c0.2,0,0.4,0,0.5,0c-0.1,0.7,0.3,1.5-0.6,1.9C256,160.5,255.9,159.9,255.7,159.3z"/>
<path class="st7" d="M46.4,260.9c0,0.5,0,1.1,0,1.6C45.8,262,46,261.4,46.4,260.9z"/>
<path class="st13" d="M118,230.4c-0.4,0.5-1,0.5-1.5,0.3C117,230.4,117.5,230.3,118,230.4z"/>
<path class="st36" d="M262.5,162.5c0.5-0.5,0.9-0.5,1.4,0C263.5,162.5,263,162.5,262.5,162.5z"/>
<path class="st39" d="M238.6,177.5c0.4,0.2,0.4,0.6,0.5,1c0,0.2,0,0.3-0.1,0.5C238.5,178.6,238.5,178,238.6,177.5z"/>
<path class="st0" d="M181.3,57.2c-5.6,0-9.9-4.4-10-10.4c-0.1-5.9,4.2-10.4,9.9-10.4c5.6,0,10,4.7,10,10.7
	C191.3,52.9,187,57.2,181.3,57.2z"/>
<path class="st40" d="M267.6,51c-0.2,3.8-0.4,7.6-0.6,11.7c-2.6-0.9-4.9-1.8-7.5-2.9c2.7-3.2,5.1-6.1,7.6-9.1
	C267.4,50.9,267.5,50.9,267.6,51z"/>
<path class="st41" d="M328.3,302.9c-3,0-5.6-2.4-5.6-5.3c0-2.7,2.3-5,5-5c3.1,0,5.6,2.4,5.6,5.4
	C333.3,300.7,331.1,302.9,328.3,302.9z"/>
<path class="st0" d="M97.3,311.8c2.8,0,5,2.1,5.1,4.9c0,2.9-2.5,5.5-5.4,5.6c-2.7,0.1-5.1-2.3-5.1-5
	C91.8,314.4,94.4,311.8,97.3,311.8z"/>
<path class="st41" d="M223,358.6c-0.1-3,2.1-5.3,4.9-5.4c2.8-0.1,5.2,2.4,5.3,5.4c0.1,2.9-2.1,5.2-5,5.3
	C225.3,364,223,361.7,223,358.6z"/>
<path class="st42" d="M81.6,297.8c0.8-1.1,2-1.7,2.9-2.5c0.6-0.6,1.1-0.4,1.5,0.2c0.4,0.6,0.9,1.1,1.2,1.8c0.6,1.2,0.3,2.4-0.7,3.1
	c-0.9,0.7-2.1,0.6-3-0.3C82.8,299.5,82.2,298.6,81.6,297.8z"/>
<path class="st43" d="M147.7,355.4c-0.1,0.2-0.2,0.4-0.4,0.5c-0.8,0.1-1.5-0.1-2.1-0.7c-0.5-0.5-0.5-1.2-0.2-1.8
	c0.2-0.4,0.6-0.8,1.1-0.8c0.4,0,0.6,0.4,0.8,0.8C147.1,354,147.4,354.7,147.7,355.4z"/>
<path class="st44" d="M150.8,345.3c0.6,0.1,1,0.4,0.9,1.1c0,0.9-1.1,2-1.8,1.9c-0.6-0.1-0.6-0.7-0.6-1.1
	C149.3,346.1,149.9,345.3,150.8,345.3z"/>
<path class="st42" d="M339.6,276.5c0,1.1-1.4,3.3-2,3.2c-0.7-0.1-3.3-1.8-3.2-2.2c0-1.1,1.8-3.1,2.8-3.1
	C338.4,274.3,339.5,275.3,339.6,276.5z"/>
<path d="M275.4,147.2c-5.9,3.5-12.2,4.1-18.8,3.3c-4.3-0.5-7.5-2.9-10.1-6.2c-0.2-0.3-0.5-0.6-0.7-0.9c0-0.1,0-0.2,0-0.2
	c-3.5-6.2,0.6-12.9,5-15.8c4.1-2.7,8.5-4.2,13.4-4.7c2.5-0.2,4.9-0.5,7.4-0.1c4.4,0.8,8.1,2.6,10.9,6.2c1.5,2,1.3,4.2,1.3,6.4
	c-1,4.6-3.8,8-7.3,11C276,146.5,275.7,146.9,275.4,147.2z"/>
<path class="st45" d="M218.1,157.8c-0.8,0-1.3-0.5-1.4-1.3c-0.1-0.7,1-1.9,1.8-1.9c0.7,0,1.1,0.5,1.3,1.1
	C219.9,156.5,218.9,157.7,218.1,157.8z"/>
<path class="st46" d="M224.4,162.6c-0.6-0.1-1.1-0.4-1.1-1.1c0-0.7,0.5-1.2,1.1-1.2c0.6,0,1,0.4,1.1,1
	C225.6,162,225,162.3,224.4,162.6z"/>
<path class="st47" d="M230.8,155.5c-0.1,0.6-0.5,1-1.2,0.9c-0.6-0.1-1.1-0.4-1-1.1c0.1-0.6,0.5-1,1.1-0.9
	C230.4,154.5,230.8,154.8,230.8,155.5z"/>
<path class="st48" d="M236.6,160.2c0,0.5-0.2,0.9-0.7,0.9c-0.8,0.1-1.2-0.5-1.2-1.2c0-0.4,0.4-0.7,0.8-0.7
	C236.2,159.2,236.5,159.6,236.6,160.2z"/>
<path class="st49" d="M222.3,148.7c0.5,0.2,0.8,0.4,0.8,0.9c0,0.5-0.3,0.9-0.8,0.9c-0.5,0-0.9-0.3-0.8-0.9
	C221.5,149.1,221.9,148.9,222.3,148.7z"/>
<path class="st50" d="M280.3,138.1c-3.4,5.5-8.4,8.3-14.6,9.1c-0.6-0.7-0.2-1.4-0.2-2.1c0-3.3-2.6-5.8-5.9-5.6
	c-3.3,0.3-6.1,1.4-7.1,5c-0.2,0.7-0.4,1.1-1.1,0.6c-2-1.6-3.3-3.6-3.5-6.3c-0.1-1.2,0.3-1.9,1.6-2.2c3.2-0.6,6.5-1,9.7-1
	c6-0.1,12-0.3,17.9,1.1C278.2,137,279.3,137.1,280.3,138.1z"/>
<path class="st6" d="M263.1,132.8c-3.9-0.1-8.1,0.2-12.3,0.8c-0.4,0.1-0.8,0.2-1.1-0.2c-0.3-0.5,0.1-0.9,0.4-1.3
	c0.9-1.1,1.9-1.9,3.1-2.6c4.6-2.7,9.6-3.8,14.9-3.9c2.8-0.1,5.5,0.2,8.1,1.5c1.6,0.8,3,1.8,4.1,3.2c0.4,0.5,0.7,1.1,0.8,1.7
	c0.5,2.5-0.1,3-2.5,2.3c-4.2-1.2-8.5-1.4-12.8-1.5C265.1,132.8,264.3,132.8,263.1,132.8z"/>
</svg>
